<?xml version="1.0" standalone="no"?>
<!DOCTYPE svg PUBLIC "-//W3C//DTD SVG 1.1//EN" "http://www.w3.org/Graphics/SVG/1.1/DTD/svg11.dtd" >
<svg xmlns="http://www.w3.org/2000/svg">
<metadata></metadata>
<defs>
<font id="captain_howdyregular" horiz-adv-x="855" >
<font-face units-per-em="1000" ascent="800" descent="-200" />
<missing-glyph horiz-adv-x="387" />
<glyph unicode="&#xd;" horiz-adv-x="387" />
<glyph unicode=" "  horiz-adv-x="387" />
<glyph unicode="&#x09;" horiz-adv-x="387" />
<glyph unicode="&#xa0;" horiz-adv-x="387" />
<glyph unicode="!" horiz-adv-x="386" d="M359 662q-61 -12 -66 -77l-62 -340l-47 1l-63 320q-16 93 -70 90l-1 70q16 5 38 5q70 0 108 -52q46 52 138 52q12 0 25 -1v-68zM309 90q0 -41 -29 -70t-71 -29q-41 0 -70 29t-29 70t29 70t70 29q42 0 71 -29t29 -70zM203 329l-10 245q-1 22 -18 47.5t-39 29.5 q23 -17 34 -97zM217 156q-55 3 -70 -58q-1 -8 -1 -15q0 -33 34 -52q-16 14 -16 38q0 12 4 23q17 50 49 64z" />
<glyph unicode="&#x22;" horiz-adv-x="352" d="M147 753l-20 -210h-82l-20 210h122zM81 564l-7 168h-17l13 -168h11zM327 753l-20 -210h-82l-20 210h122zM261 564l-7 168h-17l13 -168h11z" />
<glyph unicode="$" horiz-adv-x="510" d="M493 245q0 -70 -68 -117q-58 -40 -139 -51v-73h-61v71q-78 5 -134 32q-75 36 -75 102q-1 30 20 52.5t51 22.5q26 0 50 -20.5t24 -46.5t-32 -48q9 -12 43 -21q28 -7 50 -7q48 0 82 20q41 24 41 69q0 71 -100 77q-218 14 -218 154q0 60 68 99q55 32 130 40v71h61v-71 q76 -6 127 -31q68 -35 68 -97q0 -30 -18.5 -50t-48.5 -20q-26 0 -47 18t-21 43q0 27 31 49q-35 24 -102 24q-39 0 -76 -22q-42 -25 -42 -62q0 -48 82 -70q48 -12 103 -12q60 -1 103 -33q48 -36 48 -92zM408 241q0 26 -18 47q-13 15 -53 43q47 -52 47 -97q0 -34 -32 -84 q56 33 56 91zM135 357q-47 52 -47 97q0 34 31 85q-55 -34 -55 -92q0 -26 18 -47q13 -15 53 -43z" />
<glyph unicode="&#x26;" horiz-adv-x="797" d="M641 -27q-64 0 -125 63q-84 -45 -178 -45q-136 0 -228 58q-103 66 -103 180q0 82 63 150q47 51 111 79l-43 54q-15 26 -15 56q0 66 63.5 120t144.5 51q78 -2 131 -40q41 -30 62 -76q16 -35 13 -53l-2 -40q-3 -32 -21 -59q-24 -38 -74 -72l148 -179q50 65 77 143l80 -31 q-37 -107 -96 -182q38 -49 69 -49q21 0 29 27q11 -28 11 -55q0 -42 -37 -71t-80 -29zM413 608q0 61 -75 72q-72 -10 -72 -49q0 -19 20 -44l64 -79q25 20 33 28q19 18 24.5 37t5.5 35zM606 43q-22 9 -61 59l-301 384q-49 63 -46 92q-7 -11 -7 -26q0 -32 26 -66l292 -373 q17 -22 44 -43q31 -24 53 -27zM458 106l-168 214q-60 -40 -64 -87q-2 -13 -2 -24q0 -78 104 -118q21 -8 45 -8q40 0 85 23zM155 94q-54 65 -56 134q-1 77 35 133q-60 -54 -60 -148q0 -31 26.5 -70.5t54.5 -48.5z" />
<glyph unicode="'" horiz-adv-x="172" d="M147 753l-20 -210h-82l-20 210h122zM81 564l-7 168h-17l13 -168h11z" />
<glyph unicode="(" horiz-adv-x="286" d="M307 -88q-149 11 -218 159q-29 61 -39 145q-7 55 -7 143q0 91 7 147q10 84 39 145q69 148 218 159q-123 -92 -122 -299q-16 -167 0 -300q0 -181 122 -299zM175 711q-82 -70 -79 -247v-222q0 -150 66 -216q-28 37 -39 136q-19 168 -2 373q9 112 54 176z" />
<glyph unicode=")" horiz-adv-x="282" d="M289 216q-10 -84 -39 -145q-68 -148 -218 -159q123 92 122 299q16 167 0 300q0 182 -122 299q150 -11 218 -159q29 -61 39 -145q7 -55 7 -142q0 -92 -7 -148zM244 480q0 150 -67 216q28 -36 39 -136q19 -168 2 -373q-9 -112 -54 -176q83 70 79 247z" />
<glyph unicode="*" horiz-adv-x="589" d="M560 431q4 -23 4 -38q0 -37 -34 -76l-170 63l31 -82q28 -73 30 -83q-31 -41 -73 -41q-22 0 -41 11l-30 179l-118 -143q-31 1 -55.5 24.5t-27.5 59.5l137 113l-175 29q-10 22 -10 43q0 49 40 71l171 -63l-63 170q39 39 73 39q18 0 41 -9l31 -183l118 143q41 -7 59 -22 q24 -19 25 -61l-138 -114zM462 617l-9 10l-107 -125l5 -6zM542 405l-162 30l-2 -7l161 -36zM271 513l-49 156l-12 -3l54 -155zM358 455l-42 42l-61 -16l-15 -56l39 -40l65 18zM225 475l-155 55l-3 -13l157 -49zM348 207l-35 160l-8 -2l31 -162zM234 390l-5 5l-125 -107 l9 -10z" />
<glyph unicode="," horiz-adv-x="319" d="M249 90q1 -56 -36 -110q-45 -66 -126 -91q38 43 51 103q-81 1 -88 98q0 41 29 70t70 29t69.5 -29t30.5 -70zM157 156q-27 2 -46.5 -14t-23.5 -44q-1 -8 -1 -15q0 -33 33 -52q-15 14 -15 38q0 12 4 23q17 50 49 64z" />
<glyph unicode="-" horiz-adv-x="307" d="M268 290l-238 -64v161l238 63v-160zM227 387v21l-170 -46v-21z" />
<glyph unicode="." horiz-adv-x="319" d="M249 90q0 -41 -29.5 -70t-70.5 -29t-70 29t-29 70t29 70t70 29t70.5 -29t29.5 -70zM157 156q-55 3 -70 -58q-1 -8 -1 -15q0 -33 33 -52q-15 14 -15 38q0 12 4 23q17 50 49 64z" />
<glyph unicode="/" horiz-adv-x="364" d="M390 716l-282 -774l-98 35l282 774zM316 720l-13 4l-265 -728l13 -4z" />
<glyph unicode="0" horiz-adv-x="649" d="M631 342q0 -133 -81 -234q-87 -107 -217 -107t-217 107q-81 101 -81 234t81 233q87 108 217 108t217 -108q81 -100 81 -233zM515 332q0 69 -23.5 145.5t-63.5 130.5q22 -18 41 -123q15 -88 15 -138q0 -153 -52 -259q83 111 83 244zM418 524q0 31 -27 55.5t-58 24.5 q-34 0 -59.5 -23.5t-25.5 -56.5v-354q0 -34 25.5 -57.5t59.5 -23.5t59.5 23.5t25.5 57.5v354zM199 83q-40 56 -63.5 134t-23.5 148q0 124 69 229q-43 -44 -68.5 -112.5t-25.5 -131.5q0 -139 112 -267z" />
<glyph unicode="1" horiz-adv-x="388" d="M385 85l-31 -91h-7q-71 -3 -130 62q-22 -29 -57.5 -47t-69.5 -16l-17 1l-35 90q38 3 65 22q32 22 32 57l1 371q0 16 -9 31t-25 15q-11 0 -27 -9l-2 90q33 18 76 18q51 0 92 -32q38 15 45 15q21 0 21 -19v-480q0 -71 78 -78zM196 477q0 28 -9 61q-9 38 -25 54 q13 -21 13 -84v-300q0 -80 -20 -101q41 13 41 84v286z" />
<glyph unicode="2" horiz-adv-x="535" d="M516 123q0 -57 -31.5 -90.5t-87.5 -33.5q-31 0 -90 16.5t-92 16.5q-35 0 -93.5 -19.5t-65.5 -19.5q-21 0 -21 42q0 84 35 161q38 84 104 123q75 45 106 74q56 52 56 109q0 100 -82 100q-47 0 -75 -55q42 -32 42 -68q0 -34 -26.5 -56t-60.5 -22q-100 0 -100 112 q0 73 81 121q69 41 148 41q96 0 160 -47q71 -52 71 -145q0 -80 -56 -143q-35 -41 -133 -80.5t-148 -92.5q40 7 77 7q38 0 90 -16.5t76 -16.5q55 0 67 59q49 -24 49 -77zM412 500q0 41 -26 73.5t-67 47.5q65 -45 65 -117q-1 -69 -56 -123q-29 -27 -107 -74q82 37 122 68 q69 55 69 125z" />
<glyph unicode="3" horiz-adv-x="541" d="M513 201q0 -43 -23 -90t-57 -73q-53 -43 -166 -43q-89 0 -152 34q-79 43 -79 124q0 33 23 55.5t56 22.5q31 0 56 -24.5t25 -56.5q0 -29 -23 -51q28 -16 62 -16q47 0 79 26t32 72q0 115 -193 104v81q19 -2 37 -2q155 0 155 144q0 41 -24.5 65t-62.5 26q-55 2 -87 -53 q41 -34 41 -72q0 -32 -23 -54.5t-56 -22.5q-38 0 -65.5 30.5t-27.5 69.5q0 84 70 130q60 40 147 40q98 0 164 -43q78 -51 78 -144q0 -82 -80 -137q94 -54 94 -142zM420 213q0 73 -82 144q74 56 74 139q0 73 -63 118q44 -48 44 -113q0 -80 -88 -145l-1 1v1q3 0 17 -12 q75 -63 75 -141q0 -70 -63 -134q36 23 61.5 62.5t25.5 79.5z" />
<glyph unicode="4" horiz-adv-x="625" d="M601 323q0 -70 -41 -89q34 -32 34 -97q0 -12 -1 -20h-71q0 29 -18 47t-46 17q-4 -15 -4 -29q0 -33 22.5 -55t55.5 -25l-2 -75q-13 -1 -25 -1q-83 0 -121 45q-36 -48 -160 -46h-13l3 68q85 7 85 105q0 10 -1 17h-236l-39 84l300 398l201 -2v-76l-68 -2v-310q44 1 59 14 t17 56h67q2 -12 2 -24zM359 557l-21 -29v-331q0 -90 -20 -110q40 13 40 84zM298 275v203l-154 -201z" />
<glyph unicode="5" horiz-adv-x="562" d="M527 234q0 -100 -76.5 -173t-176.5 -73q-87 0 -152 37q-79 45 -79 125q0 35 24 63.5t58 28.5q32 0 58.5 -25.5t26.5 -56.5q0 -30 -28 -59q33 -35 68 -35q48 0 84 53q32 47 32 98q0 48 -24 80q-27 36 -73 36q-75 0 -137 -68l-90 49v347h83l30 -31q73 42 154 42 q34 0 71.5 -16.5t52.5 -16.5q9 0 23.5 6.5t22.5 6.5q15 0 23.5 -13t8.5 -28q0 -53 -42.5 -87.5t-95.5 -34.5q-50 0 -112 31.5t-85 31.5q-12 0 -19 -6v-148q53 37 150 37q96 0 156 -52q64 -54 64 -149zM441 200q0 38 -19.5 79t-47.5 63q42 -57 42 -131q0 -75 -58 -135 q83 58 83 124z" />
<glyph unicode="6" horiz-adv-x="547" d="M506 225q0 -99 -63.5 -164t-162.5 -65q-142 0 -215 104q-64 90 -64 239q0 136 72 233q79 108 210 108q66 0 108.5 -23t71.5 -78q10 -20 10 -39q0 -41 -25.5 -68.5t-66.5 -27.5q-33 0 -56.5 23t-23.5 56q0 30 24 57q-21 22 -46 22q-48 0 -79 -66q-26 -54 -26 -106 q0 -11 1 -22q77 27 140 27q87 0 141 -63q50 -59 50 -147zM406 210q0 38 -19 76t-48 61q42 -57 42 -131q0 -75 -58 -135q83 58 83 129zM337 215q0 44 -16 84q-22 53 -59 53q-38 0 -59 -53q-17 -40 -17 -84t17 -85q21 -53 59 -53q37 0 59 53q16 41 16 85zM173 57 q-53 48 -84 130q-30 77 -30 152q0 109 57 221q-81 -75 -81 -225q0 -87 32 -159q37 -81 106 -119z" />
<glyph unicode="7" horiz-adv-x="548" d="M533 579q0 -69 -53 -134q-49 -50 -99 -101q-54 -58 -54 -109q0 -45 12 -60q14 -20 60 -20q21 0 39 3q1 -11 1 -22q0 -66 -42 -102t-109 -36q-68 0 -114 56q-44 52 -44 121q0 55 34 114q33 56 81 89l98 60q45 30 83 81q-34 -31 -119 -31q-18 0 -54.5 4.5t-54.5 4.5 q-40 0 -70 -18q-37 -22 -32 -60h-68l-2 225q10 13 25 13q16 0 43 -19t47 -19q23 0 68 18t72 18q22 0 62 -14t62 -14q26 0 50.5 14.5t37.5 14.5q39 0 39 -55zM264 46q-58 60 -58 135q0 74 42 131q-72 -57 -72 -122q0 -39 28 -81q24 -38 60 -63z" />
<glyph unicode="8" horiz-adv-x="587" d="M554 198q0 -90 -82 -151q-75 -56 -167 -56q-113 0 -184 48q-84 56 -84 164q0 106 97 170q-69 28 -69 128q0 79 74 130q67 46 149 46q88 0 147 -38q70 -45 70 -127q0 -78 -62 -123q50 -27 80.5 -80t30.5 -111zM396 527q0 34 -27.5 55t-62.5 21q-90 0 -90 -60q0 -36 42 -63 q36 -23 74 -23q24 0 44 23t20 47zM462 206q0 77 -95 120q-87 36 -173 73q-90 55 -80 164q-9 -30 -9 -58q0 -88 88 -134l164 -68q88 -45 88 -129q0 -21 -8 -43q25 37 25 75zM402 181q0 32 -44 66q-33 25 -72 41q-86 -55 -86 -116q0 -91 99 -91q103 0 103 100z" />
<glyph unicode="9" horiz-adv-x="593" d="M564 338q0 -130 -75 -231q-81 -111 -205 -111q-74 0 -127 29q-66 35 -66 103q0 37 25 58.5t63 21.5q32 0 51.5 -22t19.5 -54q0 -20 -8 -36q26 -21 48 -21q42 0 61 79q13 54 12 118q-51 -40 -116 -40q-89 0 -150.5 60t-61.5 149q0 108 75 174q71 61 178 61q135 0 210 -103 q66 -92 66 -235zM368 425q0 177 -72 177q-79 0 -79 -165q0 -113 83 -113q34 0 65 25q3 34 3 76zM452 354q0 169 -90 246q60 -95 60 -249q0 -128 -55 -257q43 41 66 121q19 67 19 139zM158 584q-33 -27 -56 -67q-25 -43 -25 -82q0 -65 66 -117q-36 61 -36 135q0 77 51 131z " />
<glyph unicode=":" horiz-adv-x="308" d="M249 90q0 -41 -29.5 -70t-70.5 -29t-70 29t-29 70t29 70t70 29t70.5 -29t29.5 -70zM157 156q-55 3 -70 -58q-1 -8 -1 -15q0 -33 33 -52q-15 14 -15 38q0 12 4 23q17 50 49 64zM249 440q0 -41 -29.5 -70t-70.5 -29t-70 29t-29 70t29 70t70 29t70.5 -29t29.5 -70zM157 506 q-55 3 -70 -58q-1 -8 -1 -15q0 -33 33 -52q-15 14 -15 38q0 12 4 23q17 50 49 64z" />
<glyph unicode=";" horiz-adv-x="319" d="M249 90q1 -56 -36 -110q-45 -66 -126 -91q38 43 51 103q-81 1 -88 98q0 41 29 70t70 29t69.5 -29t30.5 -70zM157 156q-27 2 -46.5 -14t-23.5 -44q-1 -8 -1 -15q0 -33 33 -52q-15 14 -15 38q0 12 4 23q17 50 49 64zM249 440q0 -41 -29.5 -70t-70.5 -29t-70 29t-29 70 t29 70t70 29t70.5 -29t29.5 -70zM157 506q-55 3 -70 -58q-1 -8 -1 -15q0 -33 33 -52q-15 14 -15 38q0 12 4 23q17 50 49 64z" />
<glyph unicode="?" horiz-adv-x="616" d="M575 587q10 -30 10 -57q0 -75 -72 -132q-33 -26 -118 -66q-62 -34 -62 -96q0 -8 1 -16q-49 42 -49 94q0 71 69 122q77 61 70 124q0 51 -41 85q-37 30 -87 30q-61 0 -90 -46q48 -28 48 -85q0 -41 -29 -67.5t-74 -26.5q-48 0 -76 34q-26 31 -25 77q2 86 90 137 q75 43 167 43q103 0 174 -40.5t94 -113.5zM428 90q0 -41 -29.5 -70t-70.5 -29t-70 29t-29 70t29 70t70 29t70.5 -29t29.5 -70zM496 539q2 98 -88 134q63 -43 63 -135q-1 -22 -8 -43q-15 -48 -55 -79q36 13 60 48t28 75zM336 156q-55 3 -70 -58q-1 -8 -1 -15q0 -33 34 -52 q-16 14 -16 38q0 12 4 23q17 50 49 64z" />
<glyph unicode="@" horiz-adv-x="907" d="M891 374q0 -80 -55 -152q-59 -77 -138 -77q-64 0 -111 47q-57 -54 -132 -54q-81 0 -139 60.5t-58 141.5q0 80 58 138t139 58q66 0 118 -40h76l-1 -242q0 -45 32 -45q77 0 77 161q0 126 -88 214t-214 88t-209.5 -95.5t-83.5 -221.5q0 -142 104 -234q100 -88 244 -88 q168 0 283 70q-144 -146 -338 -146q-174 0 -302 111q-135 116 -135 287q0 170 135 286q128 111 302 111q167 0 297 -104q139 -110 139 -274zM807 379q0 81 -35 148q-40 75 -111 99q63 -27 99 -112q30 -72 30 -151q0 -75 -28 -123q45 38 45 139zM543 338q0 46 -21 83 q-25 44 -67 44t-67 -44q-21 -37 -21 -81q0 -45 21 -84q25 -47 67 -47q39 0 65 46q23 40 23 83zM373 192q-62 51 -62 148q2 25 9 47q17 54 53 88q-66 -29 -80 -136q-2 -107 80 -147zM260 35q-75 55 -128 135q-58 91 -58 173q0 87 54 184q52 93 126 146q-83 -49 -141 -136 q-61 -93 -61 -184q0 -96 61 -186q58 -84 147 -132z" />
<glyph unicode="A" d="M854 67v-69q-8 -2 -22 -2q-95 0 -139 55q-55 -52 -155 -52q-17 0 -33 2v66q31 0 56 9q35 12 35 36q0 14 -18 48q-13 22 -26 45h-310q-26 -62 -26 -78q0 -62 92 -60v-66q-14 -3 -34 -3q-69 0 -108 42q-59 -44 -120 -44q-23 0 -43 9v66q73 3 100 66q54 125 109 251 q90 211 90 235q0 31 -40 31q-12 0 -25 -2l1 80q20 5 48 5q92 0 137 -60q20 28 61 44q37 15 75 15q21 0 42 -4v-72q-25 -1 -43 -13q-22 -14 -22 -37q0 -15 10 -34l227 -439q39 -75 81 -70zM644 127q0 41 -16 72l-179 359q-10 18 -41 34zM492 311l-113 226l-90 -225z" />
<glyph unicode="B" horiz-adv-x="707" d="M691 218q0 -110 -101 -173q-86 -53 -204 -53q-103 0 -173 57q-25 -25 -69 -39q-40 -13 -79 -13l-10 1v71q32 8 51.5 34.5t19.5 60.5v394q0 49 -19 78q-24 35 -70 29v68q17 2 42 2q104 0 140 -39q85 49 188 49q97 0 174 -56q84 -62 84 -154q0 -83 -87 -132q49 -21 82 -78 q31 -53 31 -107zM548 558q0 48 -52 85q33 -36 33 -92q0 -44 -27 -87q46 42 46 94zM485 558q0 46 -22 77q-25 35 -69 35q-32 0 -59 -11q-34 -16 -34 -45v-179q17 -1 32 -1q152 0 152 124zM586 224q0 51 -55 94q32 -44 32 -102q0 -56 -40 -103q63 48 63 111zM523 221 q0 55 -40 93t-96 38q-39 0 -84 -21v-164q0 -87 82 -87q58 0 98 40.5t40 100.5zM190 522q0 82 -32 115q12 -21 12 -84v-350q0 -80 -20 -101q40 13 40 84v336z" />
<glyph unicode="C" horiz-adv-x="638" d="M625 228q-12 -99 -95 -169.5t-183 -70.5q-148 0 -235 110q-82 101 -82 254q0 160 72 268q83 124 235 124q84 0 171 -49l19 33l61 -4v-244l-59 -2q-41 181 -158 181q-87 0 -131 -104q-34 -78 -34 -178q0 -104 35 -183q46 -104 137 -104q66 0 116 51q46 47 59 114zM213 62 q-53 53 -85 144q-29 84 -29 165q0 120 57 244q-81 -82 -81 -247q0 -94 31 -172q36 -90 107 -134z" />
<glyph unicode="D" horiz-adv-x="668" d="M664 373q0 -163 -67 -261q-79 -115 -234 -115q-112 0 -166 62q-23 -29 -63.5 -45.5t-79.5 -16.5q-14 0 -27 2v64q33 7 54 33.5t21 61.5v393q0 48 -14 79q-20 42 -62 36v67q16 3 39 3q91 0 118 -54q61 56 172 56q157 0 237 -107q72 -95 72 -258zM542 376q0 191 -78 261 q54 -101 54 -252q0 -169 -55 -270q79 69 79 261zM478 392q0 92 -22 165q-32 109 -100 109q-87 0 -87 -107v-374q0 -36 15 -64q19 -34 52 -34q84 0 119 118q23 75 23 187zM164 517q0 83 -31 115q12 -21 12 -84v-350q0 -80 -20 -101q39 13 39 84v336z" />
<glyph unicode="E" horiz-adv-x="689" d="M661 241l-18 -242h-54l-27 46q-81 -47 -175 -47q-91 0 -155 58q-64 -59 -134 -59q-17 0 -33 5v74q31 0 47 37q13 28 13 63l-1 366q0 50 -17 83q-22 44 -67 37v73l20 1q122 3 144 -51q74 51 161 51q32 0 83 -15.5t72 -15.5q37 0 43 33l55 -27l1 -155l-57 -18 q-10 49 -53 79t-94 30q-72 0 -99 -40q-19 -30 -19 -97v-41q1 -27 1 -42q18 -8 39 -8q68 0 72 99l70 -3q1 -8 1 -21q0 -99 -44 -110q47 -35 52 -112h-80q-14 36 -24 47q-16 16 -51 16q-23 0 -34 -15q0 -110 7 -143q19 -91 92 -91q79 0 127 42q52 44 55 123zM191 517 q0 28 -8 61q-10 38 -25 54q12 -21 12 -84v-350q0 -80 -20 -101q41 13 41 84v336z" />
<glyph unicode="F" horiz-adv-x="612" d="M605 522l-79 -11q-62 146 -171 146q-33 0 -55 -18.5t-22 -51.5v-162q8 -2 19 -2q78 0 94 88h76q1 -46 -2 -63q-9 -40 -46 -52q50 -38 50 -104q0 -10 -2 -20l-73 -2q-9 27 -30 47.5t-47 20.5q-29 0 -35 -3l-1 -128q0 -55 22 -92q26 -45 77 -46v-73q-9 -2 -25 -2 q-82 0 -133 59q-58 -56 -151 -56q-17 0 -35 3v67q32 7 50 36t18 63v407q0 40 -17 68q-20 34 -56 31v63h16q109 3 158 -43q83 48 150 48q49 0 101 -24q20 -22 41 -22q24 0 35 34l48 -14zM167 527q0 27 -9 61q-10 38 -25 54q12 -21 12 -84v-350q0 -80 -20 -101q42 13 42 84 v336z" />
<glyph unicode="G" horiz-adv-x="656" d="M639 342q-62 -20 -62 -120v-217h-100l-31 28q-64 -40 -144 -40q-42 0 -70 9q-242 75 -242 378q0 144 83 251q90 115 230 115q83 0 148 -35l5 28l80 -15l46 -185l-74 -19q-10 62 -57 105.5t-109 43.5q-93 0 -137 -113q-31 -80 -31 -190q0 -108 27 -181q39 -105 127 -105 q41 0 69.5 23t28.5 64v95q0 32 -24 55.5t-58 30.5v81q95 -5 157 -59q39 44 138 47v-75zM492 246q0 22 -12 49q-13 32 -31 34q21 -36 21 -130q0 -24 -1.5 -63t-1.5 -50l24 -22zM153 84q-85 136 -85 303q0 134 64 249q-44 -47 -70 -123q-26 -71 -26 -138q0 -173 117 -291z" />
<glyph unicode="H" horiz-adv-x="820" d="M791 2q-21 -3 -49 -3q-87 0 -128 42q-49 -43 -131 -43q-22 0 -45 4v66q41 1 66 35q23 31 23 74l1 177l-219 -1v-199q0 -82 91 -87v-68q-10 -1 -27 -1q-105 0 -146 44q-55 -43 -132 -43q-26 0 -52 7l-1 64q40 4 69 26q33 25 33 62l-1 425q0 40 -24 63t-65 20l-1 67 q16 3 39 3q82 0 132 -39q52 39 117 39q32 0 61 -12v-60q-38 -2 -64 -23q-28 -24 -28 -60l1 -126h219v58q1 39 1 59q0 87 -85 94v61q28 8 63 8q76 0 113 -46q48 47 117 47q26 0 50 -8l1 -64h-7q-34 1 -54 -16q-23 -18 -23 -52v-428q0 -89 84 -98zM593 191v336 q0 27 -10.5 62.5t-26.5 52.5q12 -21 12 -84v-350q0 -80 -20 -101q21 7 34 36q11 24 11 48zM208 527q0 27 -10.5 62.5t-26.5 52.5q12 -21 12 -84v-350q0 -80 -20 -101q21 7 34 36q11 24 11 48v336z" />
<glyph unicode="I" horiz-adv-x="411" d="M377 659q-32 -1 -52.5 -21.5t-20.5 -52.5v-440q0 -70 67 -80v-64q-14 -3 -34 -3q-86 0 -132 57q-17 -27 -53 -42.5t-70 -14.5l-20 1v66q32 2 50.5 27t18.5 58l-1 411q0 105 -79 99v67q23 10 55 10q63 0 109 -48q38 50 115 50q22 0 46 -6zM196 191v336q0 28 -9 61 q-9 38 -25 54q13 -21 13 -84v-350q0 -80 -20 -101q21 7 32 36q9 23 9 48z" />
<glyph unicode="J" horiz-adv-x="666" d="M645 733v-76q-36 1 -61 -19t-25 -55v-293q0 -304 -277 -304q-93 0 -168 42q-89 52 -89 138q0 49 30 87.5t77 38.5q46 0 79 -30.5t33 -75.5q0 -59 -48 -88q30 -48 76 -48q45 0 78.5 35.5t33.5 81.5v384q0 48 -26 79t-73 32v68q25 6 60 6q95 0 143 -55q19 26 56 41 q33 14 68 14q16 0 33 -3zM445 175v377q0 69 -36 86q15 -27 15 -59l1 -407q0 -47 -24 -71q44 25 44 74zM135 251q-33 5 -52 -28q-15 -27 -15 -62q0 -42 32 -66q-15 18 -15 48q0 15 3 29q17 62 47 79z" />
<glyph unicode="K" horiz-adv-x="728" d="M717 70v-68q-26 -8 -62 -8q-77 0 -127 44q-50 -41 -117 -41q-24 0 -47 7l1 77q51 8 51 39q0 7 -98 218l-73 -75v-97q0 -38 20 -61.5t58 -20.5v-83q-12 -3 -30 -3q-73 0 -117 54q-56 -55 -150 -55q-15 0 -31 2v67q37 6 59 40q19 30 19 70v375q0 50 -10 73q-16 34 -61 35 v69q31 8 69 8q74 0 106 -36q16 36 83 36q24 0 52 -6v-69q-32 -5 -51.5 -31t-19.5 -59v-144l173 168q19 17 19 38q0 26 -49 26l1 70q21 6 49 6q61 0 94 -36q42 37 98 37q23 0 45 -9v-70h-4q-42 2 -92 -48l-132 -133l153 -318q14 -30 53 -59t68 -29zM476 148q0 31 -45 125 q-32 62 -63 124l-18 -20l70 -142q46 -102 44 -147q12 28 12 60zM140 191v336q0 83 -31 115q12 -21 12 -84v-350q0 -80 -20 -101q39 13 39 84z" />
<glyph unicode="L" horiz-adv-x="638" d="M650 255l-62 -256h-70l-17 32q-77 -34 -160 -34q-94 0 -144 57q-45 -55 -110 -55q-26 0 -52 11v71q42 0 67 35q22 31 22 74l1 386q0 75 -94 88v67q20 4 47 4q86 0 133 -49q45 51 131 51q18 0 36 -3v-71h-3q-38 2 -59.5 -23.5t-21.5 -65.5v-427q40 -24 95 -24 q128 0 203 163zM189 191l-1 336q0 27 -9 61q-10 38 -25 54q12 -21 12 -84v-350q0 -80 -20 -101q43 13 43 84z" />
<glyph unicode="M" horiz-adv-x="960" d="M931 74l-1 -72q-17 -3 -42 -3q-93 0 -138 48q-21 -25 -70 -39q-40 -11 -81 -11q-20 0 -41 2v72q45 4 74 36t29 78v270l-212 -283l-218 318v-311q0 -78 89 -105v-73q-16 -2 -39 -2q-81 0 -109 41q-40 -43 -110 -43q-14 0 -29 2v80q40 3 67 29.5t27 67.5v367q0 109 -89 108 v79h246l206 -311l218 311h206l1 -89q-33 1 -53 -21t-20 -55v-385q0 -85 89 -106zM733 189v372l-19 -26l-1 -333q0 -83 -49 -110q31 10 50 37.5t19 59.5zM461 276l-192 283q-16 23 -41 25l217 -325z" />
<glyph unicode="N" horiz-adv-x="773" d="M755 655q-31 -1 -51.5 -21t-20.5 -51v-578h-74l-337 388v-226q0 -96 81 -93v-72q-15 -6 -38 -6q-58 0 -100 42q-52 -41 -112 -41q-9 0 -17 1v74q31 3 50.5 26t19.5 55v370q0 54 -27 89q-30 38 -84 37v81h171l360 -406v236q0 41 -16 67q-21 30 -59 30v77q11 2 28 2 q68 0 105 -44q27 45 99 45q10 0 22 -1v-81zM597 125l-351 403v-31l351 -404v32z" />
<glyph unicode="O" horiz-adv-x="660" d="M658 368q0 -151 -83 -263q-92 -123 -238 -123q-141 0 -233 123q-84 113 -84 259q0 150 85 262q93 123 239 123q141 0 232 -123q82 -112 82 -258zM536 348q0 153 -94 283l3 -4q59 -125 59 -278q0 -159 -58 -263q90 112 90 262zM454 345q0 97 -18 180q-29 129 -92 129 q-74 0 -106 -120q-19 -75 -19 -182q0 -86 26 -171q35 -115 99 -115q110 0 110 279zM187 69q-91 155 -91 310q0 136 71 259q-45 -52 -72.5 -129t-27.5 -147q0 -155 120 -293z" />
<glyph unicode="P" horiz-adv-x="657" d="M643 475q0 -113 -75 -190t-188 -77q-48 0 -89 22v-90q0 -35 24 -52t60 -13v-71q-27 -9 -61 -9q-68 0 -106 48q-49 -48 -136 -48q-18 0 -36 3v65q32 0 54 18.5t22 49.5v437q0 36 -18 59q-21 26 -56 25v80q18 3 43 3q89 0 130 -51q82 59 168 59q114 0 189 -77t75 -191z M540 495q0 80 -63 151q41 -72 41 -163q0 -93 -56 -165q34 32 56 81.5t22 95.5zM474 495q0 22 -2 39q-4 36 -28 73q-28 45 -61 45q-38 0 -67 -26.5t-29 -63.5l-1 -232q24 -13 55 -13q69 0 104 58q29 47 29 120zM170 186v336q0 83 -32 115q13 -21 13 -84v-350q0 -80 -20 -101 q39 13 39 84z" />
<glyph unicode="Q" horiz-adv-x="696" d="M691 -21q0 -48 -33.5 -82.5t-80.5 -34.5q-100 0 -180 125q-27 -5 -55 -5q-141 0 -233 123q-84 112 -84 259q0 150 85 262q93 123 239 123q141 0 232 -123q82 -112 82 -258q0 -101 -41 -191q-43 -94 -118 -146q33 -32 55 -32q27 0 51 28q20 23 30 53q51 -47 51 -101z M541 348q0 148 -91 278q59 -125 59 -277q0 -155 -56 -259v0q88 111 88 258zM459 345q0 97 -18 180q-29 129 -92 129q-74 0 -106 -120q-19 -75 -19 -182q0 -86 26 -171q35 -115 99 -115h5q-18 38 -52 125l68 33q18 -38 56 -96q33 73 33 217zM192 69q-94 159 -94 310 q0 131 74 259q-45 -52 -72.5 -129t-27.5 -147q0 -155 120 -293z" />
<glyph unicode="R" horiz-adv-x="742" d="M733 116q0 -51 -41.5 -85t-93.5 -34q-93 0 -141 79q-30 74 -59 147q-32 79 -88 79q-19 0 -35 -8q-20 -11 -20 -29v-90q0 -36 22 -64t57 -29v-78q-20 -4 -47 -4q-82 0 -109 52q-42 -56 -117 -56q-27 0 -56 10v65q32 4 52 28.5t20 56.5v411q0 82 -53 82q-10 0 -22 -4v78 q36 16 79 16q77 0 118 -62q30 30 83 50q50 18 95 18q106 0 174.5 -70.5t68.5 -176.5q0 -64 -38 -109.5t-101 -57.5q47 -24 78 -77q20 -43 40.5 -83.5t45.5 -40.5q33 0 66 61q22 -40 22 -75zM523 538q0 54 -61 93q36 -46 36 -108q0 -48 -28 -91q53 48 53 106zM453 535 q0 45 -20 72q-22 31 -65 31q-108 0 -108 -92v-160q20 -5 38 -5q70 0 112.5 42t42.5 112zM563 55q-35 23 -70 119q-33 90 -75 105q15 -10 36 -70q27 -77 41 -102q29 -52 68 -52zM144 182v341q0 28 -9 60q-11 37 -27 54q12 -21 12 -84v-355q0 -80 -20 -101q21 8 33 37 q11 24 11 48z" />
<glyph unicode="S" horiz-adv-x="627" d="M590 232q0 -107 -88 -177q-82 -66 -191 -66q-49 0 -109.5 25t-56.5 25q-16 0 -12 -29h-76l-11 264l71 5q18 -62 77 -127q66 -73 122 -73q44 0 77 30t33 74q0 74 -101 103q-185 53 -189 55q-101 52 -101 180q0 101 76 164q71 59 175 59q96 0 197 -54l11 36l57 -8l11 -238 l-60 -5q-43 190 -173 190q-46 0 -79 -36t-33 -83q0 -37 61 -60l128 -36q81 -24 113 -57q71 -73 71 -161zM477 215q0 116 -208 146q-74 11 -123 60q-53 51 -54 124q-4 -21 -4 -40q0 -69 50 -111q37 -32 112 -53l122 -30q32 -9 61 -52.5t29 -77.5q0 -16 -4 -32q19 34 19 66z " />
<glyph unicode="T" horiz-adv-x="653" d="M635 722v-247l-73 -41q-9 97 -15 118q-20 83 -71 83q-26 0 -48.5 -20.5t-22.5 -45.5v-405q0 -36 18 -62q19 -30 53 -28l1 -70q-16 -5 -38 -5q-70 0 -108 51q-46 -51 -139 -51q-12 0 -25 1v68q29 5 47.5 26.5t18.5 50.5v428q0 61 -53 61q-57 0 -88 -80q-22 -57 -25 -126 l-66 36v252l40 15q21 -24 63 -24q25 0 69 18.5t71 18.5q55 0 82 -43q11 18 49 32q33 13 58 13q32 0 70.5 -21t57.5 -21q24 0 27 27zM300 186l-1 336q0 82 -33 115q13 -21 13 -84v-350q0 -80 -20 -101q41 13 41 84z" />
<glyph unicode="U" horiz-adv-x="705" d="M689 655h-6q-31 0 -48 -20.5t-17 -52.5v-378q0 -93 -79 -156q-73 -60 -168 -60q-112 0 -188 76.5t-76 188.5v320q0 39 -18 64q-21 31 -58 25v70q19 5 47 5q77 0 116 -50q33 50 112 50q18 0 37 -3v-72q-32 -1 -51.5 -24t-19.5 -56v-355q0 -62 32.5 -98.5t96.5 -36.5 q57 0 88 37.5t31 95.5v322q0 48 -20 78q-24 35 -69 36l-1 74q13 2 31 2q68 0 103 -40q27 39 79 39q22 0 45 -10zM192 116q-19 59 -19 137l1 265q0 70 -29 118q4 -20 4 -76v-302q0 -72 43 -142z" />
<glyph unicode="V" horiz-adv-x="777" d="M774 732v-79h-6q-67 4 -105 -102l-203 -552h-140l-192 545q-37 106 -122 106v76q27 8 63 8q89 0 128 -61q24 30 72 48q43 15 86 15q17 0 34 -2l1 -80q-32 -1 -56 -14q-30 -17 -30 -46q0 -21 61 -189q38 -102 76 -203l125 351q7 20 7 37q0 58 -70 65v77q17 4 37 4 q56 0 90 -38q44 39 105 39q20 0 39 -5zM359 75l-145 409q-21 61 -30 80q-20 47 -45 71l195 -561z" />
<glyph unicode="W" horiz-adv-x="1004" d="M961 652q-11 3 -21 3q-49 0 -71 -79l-161 -577l-113 1l-127 360l-96 -360h-122l-170 582q-18 62 -78 72l1 78q16 3 31 3q77 0 122 -49q53 51 122 51q32 0 55 -9l1 -71q-36 -3 -52 -12q-23 -13 -23 -46q0 -31 31 -129l42 -132l103 396l110 1l140 -424l48 156 q37 123 37 146q0 26 -25 39q-21 11 -49 10v72q14 4 29 4q50 0 96 -33q52 30 104 30q23 0 36 -5v-78zM656 55l-178 539l-9 -43l163 -495zM302 52l-139 479q-23 79 -58 105q14 -21 32 -83l144 -501h21z" />
<glyph unicode="X" horiz-adv-x="745" d="M730 6q-27 -7 -63 -7q-79 0 -126 43q-22 -44 -117 -44q-26 0 -56 5v64q66 8 66 46q0 18 -35 68l-46 64q-24 -34 -49 -68q-35 -53 -35 -77q0 -33 46 -34l1 -65q-19 -5 -43 -5q-65 0 -96 39q-39 -41 -109 -39l-16 1v80q68 11 100 59l138 209l-117 186q-38 61 -61 83 q-42 41 -92 35v81q29 8 65 8q72 0 104 -37q46 36 123 36q24 0 49 -5v-73h-7q-37 2 -37 -21q0 -14 35 -69q22 -35 45 -69l44 60q36 52 36 65q0 26 -57 30v77q14 3 35 3q62 0 97 -28q38 29 94 29q20 0 40 -5v-75q-59 -15 -99 -74l-123 -187l132 -213q64 -104 134 -96v-80z M491 130q0 31 -23 67l-224 343q-28 42 -44 62q-29 35 -56 49q14 -15 44 -61l215 -335q25 -36 51 -73q31 -48 31 -80q6 10 6 28z" />
<glyph unicode="Y" horiz-adv-x="739" d="M740 735l-1 -80q-35 -1 -75 -32q-33 -26 -56 -60l-157 -239l1 -183q0 -28 26 -47t59 -17v-69q-30 -10 -66 -10q-76 0 -105 55q-46 -54 -126 -54q-30 0 -61 10v66h4q33 0 55.5 16.5t22.5 48.5v168l-157 260q-31 51 -34 56q-26 33 -53 33q-6 0 -12 -2v77q29 7 65 7 q87 0 116 -50q32 48 113 48q21 0 44 -4l-1 -75q-16 4 -28 4q-29 0 -29 -21q0 -15 51 -99q33 -50 65 -101q31 42 63 85q48 70 48 99q0 41 -69 34l-1 72q29 5 63 5q84 0 103 -42q53 44 119 42zM325 156v178l-158 268q-10 17 -31 37q-24 22 -40 24q23 -9 108 -157 q51 -90 102 -181l1 -28t1 -52q0 -137 -26 -154q43 17 43 65z" />
<glyph unicode="Z" horiz-adv-x="731" d="M706 678l-423 -554q52 -26 101 -26q72 0 138 57q59 50 90 123l81 -21l-19 -257h-76q-11 33 -51 33q-26 0 -80.5 -19t-91.5 -19q-34 0 -93 15t-87 15q-65 0 -107 -30l-61 127l408 505q-38 14 -74 14q-65 0 -121 -49q-50 -45 -74 -110l-65 23v229l80 1l7 -53q66 57 173 57 q76 0 96 -11q91 -52 202 -52q24 0 47 2zM507 625l-19 5l-400 -491l11 -19z" />
<glyph unicode="\" horiz-adv-x="1479" d="M1474 422q0 -17 -3 -24q2 -6 2 -11q0 -10 -7 -16l7 -15q0 -16 -35 -16q-9 0 -15 5q-10 -5 -13 -5q-16 0 -64 40h-3l-2 -11q1 -4 2 -12q2 -16 -14 -16q-13 0 -20 4q-6 -3 -14 -3t-16 3q-9 -3 -20 -3q-7 0 -14 3l-6 9v4q0 7 2 45l-4 15q0 7 5 18q-2 8 -2 21q0 16 3 41l-4 7 q4 28 5 41q-6 4 -6 18q0 31 17 31q5 -2 9 -4q6 5 12 5q33 0 40 -4q8 5 39 4l3 -3q4 0 12 1.5t12 1.5q24 0 32 -12q10 2 28 -13l1 -7q24 -23 24 -33l-1 -7q7 -10 7 -22q0 -26 -10 -32q3 -23 -18 -32l-2 -4l-15 -4q7 -5 16 -7q8 8 13 8q6 0 14 -3zM1113 661q0 -10 -8 -20.5 t-18 -10.5q-6 0 -21 10q-22 -11 -34 -11q-41 0 -41 60q0 24 14 41.5t37 17.5q6 0 12 -1q-2 32 -2 45q0 60 22 60q17 0 17 -12q0 -26 -1.5 -76.5t-1.5 -76.5q0 -34 9 -34q-2 0 11 10l3 1zM985 657q0 -10 -9.5 -20t-19.5 -10q-29 0 -29 97q0 109 7 129q4 11 21 11q6 0 11 -3 q2 -5 2 -9q0 -29 -3 -85.5t-3 -85.5q0 -28 10 -28q6 0 10 13q3 -4 3 -9zM1209 411q0 -8 -4 -14q3 -7 3 -13t-4 -11q2 -7 2 -13q0 -18 -24 -16l-3 2q-19 -3 -34 -3q-62 0 -89 -2l-7 4q-8 23 -8 19q0 10 4 17q-3 9 -3 18q0 11 5 21q-3 6 -3 49q0 45 4 52q-3 11 -3 19 q0 10 4 16q-3 5 -3 17q0 8 1 18q9 6 14 6q8 0 16 -6l7 4q67 -4 83 -4q4 0 11 2.5t11 2.5q16 0 16 -11q0 -7 -4 -11q3 -6 3 -12t-3 -13q3 -8 3 -13q0 -15 -32 -15q-42 0 -18 1q-11 0 -14 -9l2 -5l13 -3q5 0 17 2t19 1h2l7 -5q1 -5 1 -13l-4 -6q4 -10 4 -17q0 -18 -33 -18 l-13 2q-7 1 -12 -2v-7l-4 -5l5 -12h42q23 0 23 -14zM923 700q0 -11 -20 -25q-10 -47 -53 -47q-22 0 -33.5 19t-11.5 42q0 60 51 60q43 0 48 -52q8 5 12 5t7 -2zM802 728q0 -9 -5.5 -21t-13.5 -12q-5 0 -12 17q-8 -11 -11 -51q-2 -30 -19 -30q-14 0 -15 24q1 -17 1 34 q0 6 -1.5 17t-1.5 17q0 26 23 26q14 0 11 -31q15 31 28 31q16 0 16 -21zM1014 541q0 -18 -5 -38l3 -6q-1 -47 -4 -59l4 -21l-4 -29q4 -21 4 -33q-7 -11 -25 -11q-5 0 -11 3q-18 -4 -27 -4q-5 0 -14 12t-11 19q-17 10 -23 26q-9 7 -22 21q-4 -24 -4 -36l5 -12q-5 -19 -4 -28 q-9 -3 -15 -3q-3 0 -6 1q-3 -2 -6 -2q-4 0 -9 4l-9 -4h-35q-16 2 -16 24q0 10 4 20q-4 9 -4 20q0 13 5 29l-5 10q0 32 4 39l-3 6q3 8 3 40q0 14 -2 22l1 2l1 10q-6 4 -7 15q3 6 7 13q3 4 16 4q10 0 19 -3q8 4 21 4l10 -4l10 4q9 0 16 -10h3q11 -14 11 -21v-1l7 -3 q9 -15 11 -21q8 -1 15 -10l2 2q-2 11 -2 19q0 7 2 12l-4 5q0 21 3 25.5t22 4.5q17 0 24 -4q4 2 9 3l4 -2q6 4 20 4q4 0 10 -7q1 -18 1 -20l-1 -21l-2 -2q2 -5 3 -8zM723 671q0 -14 -10 -28.5t-23 -14.5q-15 0 -18 11q-9 -12 -25 -12q-42 0 -42 54q0 23 14.5 45t36.5 22 q46 0 46 -15v-61q0 -14 3 -14t12 19l4 -2q1 -3 2 -4zM613 913q-12 -27 -30 -84q-7 -35 -7 -60q0 -20 2 -29l14 2l5 -6l-5 -9l-11 -5q7 -23 20 -68q-4 -8 -16.5 -19t-20.5 -11q-21 0 -21 99q-8 2 -21 5q-17 -106 -51 -106q-29 0 -29 14l2 5q21 53 37 96q-40 25 -40 38 q0 14 15 18q6 -2 27 -20l1 29q1 24 -8 47q-11 29 -32 29q-26 0 -41 -30q-12 -24 -12 -53q0 -15 8 -32q9 -20 22 -20q3 0 9 2.5t9 2.5q9 0 9 -15q0 -19 -24 -19q-52 0 -52 74q0 42 20 75q23 39 63 39q43 0 57 -58l12 -91q7 -5 24 -8q23 173 58 173zM1101 193q0 -19 -16 -37.5 t-35 -18.5q-12 0 -21.5 8t-9.5 19q0 16 18 16q-2 -7 -2 -13q0 -15 13 -15q12 0 12 21q0 27 -16 27q-3 -4 -11 -12q-7 2 -7 7q23 43 23 64q0 4 6 4h4q1 -8 5 -21q27 -42 23 -60l9 15q5 0 5 -4zM1018 171q-13 -32 -37 -32q-15 0 -16 33q0 13 1 43q1 16 -7 18q-4 -5 -14 -54 q-8 -38 -24 -38q-5 0 -8 2q-6 4 -6 59v17q0 41 20 41q16 0 16 -11q0 -2 -1 -6.5t-1 -6.5q0 -3 1 -6q15 33 31 33q28 0 28 -38q0 -7 -1 -21.5t-1 -21.5q0 -10 5 -10l3 2q3 2 7 5q3 -4 4 -8zM748 360q0 -15 -23 -17q-2 -1 -37 -1q-6 0 -13 4l-8 -3q-24 1 -29 20v42q0 17 1 30 l-6 5q-4 0 -15 -3q-3 -14 -3 -21q0 -3 1.5 -8.5t1.5 -8.5q0 -13 -3 -19q3 -18 4 -22q0 -17 -14 -17q-6 0 -13 2q-6 -3 -15 -3q-3 0 -15 5q-11 -5 -26 -5q-8 0 -16 2q-7 13 -7 18q0 11 2.5 32t2.5 32q0 15 -1 45.5t-1 45.5q0 4 -2.5 13t-2.5 13q0 30 1 37q5 18 25 18l17 -4 l6 4h7q15 0 21 -4q8 3 13 5q18 0 18 -20q0 -8 -3 -14q2 -22 2 -32l11 -2q3 0 13 2q3 37 3 30q0 4 -2 9q3 17 5 20q5 8 19 8l5 -3q7 2 15 2q9 0 18 -2l5 2l8 -2q5 2 10 2q8 0 16 -4q4 -6 4 -13q0 -6 -2 -18t-2 -18l3 -4q1 -48 -4 -60q5 -13 5 -24q0 -51 -6 -58q6 -17 6 -38z M750 291q0 -25 -19 -25q-13 0 -13 18q0 25 19 25q13 0 13 -18zM903 192q0 -7 -12 -35l-23 -53q-19 -34 -44 -34q-13 0 -23.5 11t-10.5 24q0 23 12 23q3 -2 5 -3l4 -23q3 -17 18 -17q20 0 20 49q0 4 -1 10v10q-13 -14 -26 -14q-40 0 -40 53q0 66 50 66q4 0 16 -6q15 5 26 5 q9 0 9 -35v-11q-1 -10 -1 -16v-28q13 18 13 33q8 -2 8 -9zM779 187q0 -16 -11.5 -31t-27.5 -15q-25 0 -25 50q0 5 -1 15.5t-1 15.5q0 35 27 35q13 0 13 -28q0 -7 -1.5 -21.5t-1.5 -21.5q0 -19 5 -19q8 0 14 12q4 6 7 13q3 0 3 -5zM711 193q0 -19 -16 -37.5t-35 -18.5 q-11 0 -21 8t-10 19q0 16 18 16q-2 -7 -2 -13q0 -15 13 -15t13 21q0 27 -17 27q-3 -4 -11 -12q-6 2 -6 7q6 13 15 30q2 5 5 25q2 13 8 13h4q1 -8 5 -21l18 -28q8 -17 5 -32l9 15q5 0 5 -4zM482 464q0 -25 -10 -33q1 -14 -7 -28.5t-21 -17.5q-3 -9 -20 -21.5t-26 -12.5l-4 1 q-14 -12 -45 -12q-22 0 -30 5l-1 -1q-15 0 -45 12l-4 7q-12 3 -24 14q-2 3 -18 22l1 6q-6 9 -15 27l1 5q-6 20 -7 30q5 6 5 15q0 30 12 50l5 1q1 9 12 19.5t20 12.5q1 12 34 23q29 10 45 10q44 0 57 -13q26 -5 43 -25l3 -1q3 -4 9 -8l3 -10l8 -5q14 -27 15 -36l-2 -2 q0 -5 3 -16.5t3 -17.5zM628 184q0 -18 -21.5 -32t-40.5 -14q-54 0 -54 59q0 26 16 44.5t41 18.5q42 0 42 -48q0 -28 -20 -28q-21 0 -39 23q0 -50 29 -50q19 0 43 35q4 0 4 -8zM511 171q0 -10 -8.5 -20.5t-18.5 -10.5q-6 0 -21 10q-22 -11 -34 -11q-41 0 -41 60q0 24 14 41.5 t37 17.5q6 0 12 -1q-2 32 -2 45q0 60 23 60q16 0 16 -12q0 -26 -1 -76.5t-1 -76.5q0 -34 8 -34l11 10l3 1zM179 367q0 -5 -1 -19q-4 -4 -16 -5l-21 -1l-3 3q-17 -2 -25 -2l-4 2q-21 -4 -18 -4q-33 0 -51 4q-5 -4 -21 -4l-6 2l-6 9q-1 2 -2 7v45l3 6q-3 5 -3 15q0 6 2 18.5 t2 18.5l-1 4l-2 2q2 21 2 50q0 28 -2 64q7 13 29 13q7 0 13 -4q24 5 27 5l8 -4q5 4 15 4q5 0 10 -5q0 -4 1.5 -11t1.5 -10l-4 -14q4 -6 4 -29v-42.5v-22.5q-1 -6 -1 -2l-3 -4v-4l3 -4v-3q1 -4 -2 -9l3 -9q11 0 19 -1q4 2 11 2l3 -2q6 2 10 2q3 0 4 -1l6 3q15 -3 15 -27 q0 -2 -4 -9l2 -7l-1 -5q3 -5 3 -15zM1461 410v5l-3 1q-6 -5 -11 -8q-26 9 -39 15l-3 3v5q10 7 15 11q24 1 31 21q-1 4 -1 7q0 4 9 15q1 16 1 24l-8 8l-1 6q0 4 3 9q-5 13 -19 22q-3 10 -11 14q-4 1 -18 3q-8 12 -55 12q-5 0 -15 -2.5t-15 -2.5q-6 0 -17.5 2t-17.5 2 q-4 0 -12 -2.5t-12 -2.5l-5 1l-5 -5v-3q0 5 8 -27q-7 -10 -7 -22q0 -18 6 -22q0 -4 -3.5 -12t-3.5 -10l5 -45q-6 -7 -6 -13q0 -4 2.5 -12t2.5 -12q0 -6 -1.5 -17t-1.5 -17q0 -7 9 -7q6 0 15 7h5q6 -6 15 -6q3 0 7.5 2t7.5 2q1 0 5 -2t5 -2h7l2 3l1 4q-4 8 -2 15q4 10 4 14v4 l4 4l1 4l2 1l2 -2l-1 -8q5 1 21 -11t20 -13q6 -13 29 -16q6 4 12 4q3 0 9.5 -3t10.5 -3q6 0 13 3l1 3l-6 11zM1056 653l-1 75q-1 9 -7 9q-25 0 -25 -42q0 -49 25 -49q8 0 8 7zM1195 380v9q-4 3 -4 8q0 3 2 7t2 6q-6 2 -31.5 1.5t-34.5 7.5l1 5q-4 7 -4 13v3q6 6 6 15l-2 6 l4 3q4 -1 12 0t12 1q4 -1 8 -3q6 3 12 3l4 -2l5 2q0 3 -1.5 10t-1.5 10l2 6l-2 3q-2 0 -7 1h-8q-2 0 -6.5 -1.5t-7.5 -1.5q-2 0 -10.5 2t-11.5 1h-5l-2 3l3 8q-3 4 -3 9q0 2 3 6l-1 8l5 4q-4 0 1 1l56 3l1 5q0 4 -2 8q3 6 3 14q-1 3 -4 11l2 4l-2 2q-4 0 -11.5 -2t-11.5 -2 q-3 0 -9 2t-9 2q-6 0 -19 -1.5t-19 -1.5l-7 3q-5 1 -8 1q-2 0 -6.5 -2t-6.5 -2h-7l-7 4h-4l-3 -5q0 -4 2 -11.5t2 -10.5q0 -4 -2.5 -11t-2.5 -11q0 -2 2 -6.5t2 -6.5q0 -11 -2.5 -31.5t-2.5 -31.5q0 -9 2 -15l-2 -8q0 -5 3 -15l-3 -17q0 -4 1 -11.5t1 -11.5q-5 -10 -5 -14 q2 -5 4 -9q4 0 10.5 1.5t10.5 1.5q92 0 109 -3l4 2q-1 11 -2 16zM870 677q0 61 -17 61q-11 0 -11 -48q0 -49 16 -49q12 0 12 36zM1001 564l-1 19l-5 1l-10 -4q-11 4 -44 4q-3 -1 -4 -2v-10q3 -5 3 -19q0 -19 -4 -34q4 -8 4 -12l-1 -2l-1 -1l-7 1l-5 4l-1 4q-14 4 -28 20 q-3 3 -21 27q2 18 -15 20q-6 -3 -12 -3q-6 6 -12 5h-5q-3 -5 -10 -5q-4 0 -11.5 2t-10.5 2l-6 -3v-4q5 -5 5 -50q-1 -8 -2 -21t2 -21l-3 -8q0 -7 2 -21t2 -21q0 -8 -3 -28.5t-2 -31.5v-10l3 -4q7 -1 14 -1q-7 0 1 1h23h25q2 9 3 16l-4 8q1 5 3 11q-2 11 3 35l-5 2q2 7 6 12 h3l7 -6q9 0 36 -27.5t28 -37.5q11 -10 14 -12q-5 0 2 1h17h19l3 4v4q0 3 -2 27l4 10q0 22 -4 31q6 23 6 104q0 -2 -3 12zM670 652v72q0 13 -6 13q-24 0 -24 -55q0 -37 17 -37q13 0 13 7zM736 359q-6 22 -6 42q0 4 3 13t3 13q0 9 -3 27.5t-3 27.5q0 2 2.5 6.5t2.5 5.5 q0 5 -2 14t-2 13l3 5q0 27 1 41l-1 15l-10 1l-4 -2q-12 1 -18 0l-4 3q-11 1 -29 -3l-5 3l-5 -2q-4 -32 -4 -57l2 -7q-4 0 -12 -1.5t-12 -1.5t-17 3q-2 -3 -7 -5l-3 4q2 35 -4 43q2 14 4 21l-3 2l-11 -6l-6 1l-5 5h-22l-30 -1l-3 -2l-1 -5q0 -12 4 -18l-3 -18l1 -2 q1 -62 5 -69q-3 -11 -2 -21q2 -18 3 -22q0 -11 -2.5 -31.5t-2.5 -31.5l3 -7l7 -1h58l7 2l1 7q0 4 -1 10.5t-1 10.5q4 7 4 11t-2 13t-2 13q0 -3 5 27q21 5 32 6l7 -4l6 1l2 -5q2 -16 -2 -46q2 -26 1 -39l3 -4l19 3q6 -3 12 -3q4 0 11 1t11 1l3 -2q10 2 19 0zM846 175v47 q-2 21 -13 21q-18 0 -18 -50q0 -36 17 -36q14 0 14 18zM470 471q0 26 -17 56l-6 3q-30 54 -105 54q-24 0 -63 -17q-6 -15 -21 -18q-6 -9 -15 -15q-1 -11 -11 -35.5t-10 -38.5q0 -26 16.5 -50.5t40.5 -35.5q8 -19 78 -19q18 0 73 30q1 4 15 18t14 30v2q4 6 8 11q0 4 1.5 12.5 t1.5 12.5zM583 227q0 20 -14 20t-17 -36q2 5 8 5q3 0 8 -4.5t8 -4.5q7 0 7 20zM453 163l-1 75q0 9 -7 9q-24 0 -24 -42q0 -49 24 -49q8 0 8 7zM166 362q0 4 -2 12t-2 12q0 3 1.5 9t1.5 9l-1 6l-2 2h-10l-2 -2q-8 0 -14 4q-22 -2 -35 1l-1 -3l-5 -1l-2 2l2 16q1 9 0 16l-2 3 l-1 6q0 7 3 21t3 21q-2 5 -4 9q1 6 1 10l-2 2q0 4 2.5 10t2.5 10q0 8 -6 14q0 2 2 7.5t2 7.5v12l-2 3q-5 0 -16 1t-16 1q-2 0 -5.5 -2t-4.5 -2q-2 0 -14 2q-7 1 -14 0l-3 -5v-23l4 -5v-5q0 -11 -2.5 -33t-2.5 -33l3 -10q0 -7 -2.5 -20t-2.5 -20q0 -60 2 -68l4 -3q12 2 17 3 q7 -3 17 -3q21 0 26 3l8 -3q13 3 20 4l4 -3q15 1 23 2l3 -2q11 4 13 4q3 0 8 -1zM1386 488q-3 -12 -6 -31q-15 -23 -28 -23q-3 2 -5 3q-7 -4 -12 -5l-4 1l-1 4l3 6q-1 9 -1 11q0 1 1 4v6q0 3 -2.5 10.5t-2.5 11.5q0 3 2 10t2 10v1q-4 5 -4 12q0 3 4 7l-2 3l2 3h3l3 -2 q7 7 17 7q18 0 19 -10q8 -3 8 -11q0 -2 -1 -3l2 -3q0 -4 1.5 -11.5t1.5 -10.5zM389 458q-13 -32 -16 -36q-11 -15 -36 -15q-14 8 -21 11q-9 11 -12 13q0 7 -2.5 19.5t-2.5 19.5q0 3 2 8t2 8q0 7 -2 10q1 10 11.5 20t20.5 11l2 3q4 2 8 2q5 0 14.5 -6t10.5 -11l8 -3 q6 -9 10 -13q0 -31 3 -41zM1372 487q-3 3 -3 10q0 27 -14 27l-12 -5l-1 -4l3 -3v-3q0 -5 -2 -14.5t-2 -13.5q0 -2 6 -29l4 -3q17 3 17 20v8q0 1 2 4.5t2 5.5zM373 461q0 1 -1 3v26q-2 8 -13.5 17t-19.5 9l-2 -1q-10 -5 -14 -6q-2 -9 -8 -11q-2 7 -2 -23q0 -2 1 -3l-2 -4 q0 -2 2 -7q3 -15 3 -23q4 -5 9 -13q2 0 6.5 -2t7.5 -2q-7 0 9 2q7 6 17 28q7 16 7 10z" />
<glyph unicode="_" horiz-adv-x="4972" d="M150 965q71 0 109 -74q19 -38 19 -83q0 -72 -42 -118q-38 -40 -86 -40q-42 0 -74.5 29.5t-45.5 71.5q-8 28 -8 57q0 68 38.5 112.5t89.5 44.5zM40 682q45 -58 110 -58q68 0 114 65q36 51 36 119q0 47 -20 90q-21 47 -57.5 69.5t-72.5 22.5q-48 0 -85 -32t-53 -79 q-12 -35 -12 -71q0 -73 40 -126zM156 730q-32 0 -46 36q-8 20 -8 44q0 50 25 69q12 8 26 8q40 0 45 -46h25q-5 49 -43 68q-14 7 -29 7q-45 0 -67 -48q-12 -26 -12 -60q0 -41 20 -71q23 -35 62 -35q59 0 70 70h-25q-10 -42 -43 -42zM478 854h-37v8q0 51 24.5 85.5t74.5 34.5 q46 0 70.5 -30t24.5 -77q0 -59 -48 -98q-5 -4 -50 -34q-33 -22 -45.5 -38t-16.5 -38h160v-43h-201q5 67 24 97q11 17 28 33q27 18 77 56q32 27 32 65q0 67 -58 67q-56 0 -59 -88zM769 942q60 0 60 -141q0 -145 -60 -145q-61 0 -61 140q0 146 61 146zM714 636q23 -20 54 -20 q101 0 101 186q0 128 -49 164q-21 16 -49 16q-103 0 -103 -185q0 -119 46 -161zM1021 942q60 0 60 -141q0 -145 -61 -145q-60 0 -60 140q0 146 61 146zM966 636q22 -20 53 -20q102 0 102 186q0 128 -49 164q-21 16 -49 16q-103 0 -103 -185q0 -119 46 -161zM1273 942 q60 0 60 -141q0 -145 -61 -145q-60 0 -60 140q0 146 61 146zM1218 636q22 -20 53 -20q102 0 102 186q0 128 -49 164q-22 16 -49 16q-103 0 -103 -185q0 -119 46 -161zM1576 624h-40v366h40v-151h159v151h41v-366h-41v172h-159v-172zM2031 624h-192v366h40v-322h152v-44z M2155 656q-63 0 -63 102q0 101 63 101q64 0 64 -101q0 -102 -64 -102zM2155 899q-53 0 -79 -46q-22 -38 -22 -95q0 -58 20 -93q18 -30 46 -42q16 -7 35 -7q54 0 80 46q22 38 22 96q0 57 -22 95q-26 46 -80 46zM2336 624h-37v367h37v-136q17 27 38 36q13 6 30 6q49 0 65 -42 q8 -21 8 -60v-171h-37v168q0 46 -19 59q-10 6 -25 6q-60 0 -60 -86v-147zM2532 624v267h35v-38q16 27 39 38q14 6 31 6q47 0 65 -42q8 -18 8 -60v-171h-38v168q0 65 -43 65q-45 0 -58 -54q-2 -12 -2 -32v-147h-37zM2857 859q37 0 51 -37q7 -18 8 -44h-122q6 81 63 81z M2856 656q-59 0 -62 85h160q0 47 -3 66q-8 55 -48 80q-21 12 -46 12q-51 0 -79 -47q-24 -40 -24 -95q0 -97 57 -130q19 -11 44 -11q39 0 66 28q24 26 30 65h-36q-17 -53 -59 -53zM3036 624h-37v267h35v-46q23 52 59 52q5 0 12 -2v-47q-9 2 -14 2q-35 0 -51 -38 q-4 -12 -4 -37v-151zM3333 749q-13 -13 -26 -13q-31 0 -31 48q0 64 35 93q12 10 23 10q31 0 31 -41q0 -64 -32 -97zM3327 913q-45 0 -71 -60q-14 -32 -14 -66q0 -31 13 -53q15 -26 44 -26q40 0 60 52q-1 -6 -1 -10q0 -40 39 -40q33 0 59 32q32 39 32 103q0 99 -74 136 q-36 19 -80 19q-87 0 -138 -70q-40 -56 -40 -129q0 -111 77 -162q39 -26 91 -26q58 0 106 32q14 8 30 23l-14 23q-55 -49 -118 -49q-67 0 -106 46q-37 43 -37 111q0 105 71 150q35 22 81 22q79 0 109 -58q14 -30 14 -68q0 -69 -35 -96q-13 -9 -25 -9q-18 0 -18 21q0 10 6 34 l27 109h-30l-10 -41q-4 50 -48 50zM3628 653q-39 0 -39 45q0 33 37 43q2 0 28 5l21 4q12 2 22 10v-43q0 -27 -21 -45.5t-48 -18.5zM3649 862q49 0 49 -45q0 -28 -19 -31l-61 -10q-27 -4 -44 -20q-22 -23 -22 -62q0 -34 18.5 -56t50.5 -22q44 0 78 43q3 -38 39 -38q8 0 21 4 v31q-8 -2 -13 -2q-12 0 -12 16v153q0 31 -17 52q-21 24 -67 24q-67 0 -84 -54q-3 -13 -4 -34h35q3 51 52 51zM3883 656q-64 0 -64 102q0 101 64 101t64 -101q0 -102 -64 -102zM3883 899q-53 0 -80 -46q-22 -38 -22 -95q0 -58 20 -93q18 -30 46 -42q16 -7 36 -7q53 0 80 46 q21 38 21 96q0 57 -21 95q-27 46 -80 46zM4065 624h-37v366h37v-366zM4172 624h-43v55h43v-55zM4373 717h35q-11 -101 -91 -101q-71 0 -89 82q-5 25 -5 53q0 61 22 98q28 48 77 48q78 0 86 -97h-35q-7 58 -50 58q-62 0 -62 -106q0 -99 57 -99q46 0 55 64zM4534 656 q-64 0 -64 102q0 101 64 101t64 -101q0 -102 -64 -102zM4534 899q-53 0 -80 -46q-22 -38 -22 -95q0 -58 21 -93q17 -30 45 -42q16 -7 36 -7q53 0 80 46q22 38 22 96q0 57 -22 95q-27 46 -80 46zM4678 624v267h36v-38q17 28 38 38q12 6 26 6q41 0 59 -42q28 42 65 42 q56 0 67 -53q3 -15 3 -42v-178h-38v187q0 45 -38 45q-27 0 -41 -24q-12 -20 -12 -48v-160h-37v185q0 48 -35 48q-27 0 -43 -26q-13 -22 -13 -50v-157h-37zM23 8v267h36v-38q17 28 38 38q12 6 26 6q41 0 60 -42q27 42 64 42q56 0 67 -53q3 -15 3 -42v-178h-38v187 q0 45 -38 45q-27 0 -41 -24q-12 -20 -12 -48v-160h-37v185q0 48 -35 48q-26 0 -42 -26q-14 -22 -14 -50v-157h-37zM464 243q37 0 51 -37q7 -18 8 -44h-122q6 81 63 81zM463 40q-59 0 -62 85h160q0 47 -3 66q-8 55 -48 80q-21 12 -46 12q-51 0 -79 -47q-24 -40 -24 -95 q0 -97 57 -130q19 -11 44 -11q39 0 66 28q24 26 30 65h-36q-17 -53 -59 -53zM605 8v267h36v-38q17 28 38 38q12 6 26 6q41 0 59 -42q28 42 65 42q56 0 67 -53q3 -15 3 -42v-178h-38v187q0 45 -38 45q-27 0 -41 -24q-12 -20 -12 -48v-160h-37v185q0 48 -35 48q-27 0 -43 -26 q-13 -22 -13 -50v-157h-37zM984 142q0 100 63 100q58 0 58 -98q0 -105 -60 -105q-61 0 -61 103zM984 8v34q23 -42 64 -42q50 0 75 52q20 40 20 95q0 94 -52 125q-18 10 -39 10q-40 0 -66 -41v133h-36v-366h34zM1278 243q37 0 51 -37q8 -18 8 -44h-122q6 81 63 81zM1277 40 q-59 0 -62 85h160q0 47 -3 66q-8 56 -48 80q-21 12 -46 12q-51 0 -79 -47q-24 -40 -24 -95q0 -97 57 -130q19 -11 44 -11q39 0 66 28q24 26 30 65h-36q-16 -53 -59 -53zM1457 8h-37v267h35v-46q23 52 59 52q5 0 12 -1v-48q-9 2 -14 2q-35 0 -50 -38q-5 -12 -5 -36v-152z M1546 92h36q3 -55 57 -55q52 0 52 43q0 26 -42 38l-32 10q-64 19 -64 73q0 50 39 72q19 10 44 10q38 0 60 -22.5t23 -61.5h-35q-4 47 -50 47t-46 -38q0 -27 38 -38l42 -13q58 -17 58 -68q0 -41 -24 -65t-65 -24q-87 0 -91 92zM1814 8h-42v55h42v-55zM1945 37q-39 0 -39 45 q0 33 36 43q3 0 29 5l21 4q12 2 22 10v-43q0 -27 -21 -45.5t-48 -18.5zM1965 246q49 0 49 -45q0 -28 -19 -31l-61 -9q-27 -5 -43 -21q-23 -23 -23 -62q0 -34 18.5 -56t51.5 -22q44 0 78 43q3 -38 39 -38q8 0 20 4v31q-8 -2 -12 -2q-12 0 -12 16v153q0 31 -19 53.5t-66 22.5 q-66 0 -83 -54q-4 -12 -5 -34h35q4 51 52 51zM2200 40q-64 0 -64 102q0 101 64 101q63 0 63 -101q0 -102 -63 -102zM2200 283q-54 0 -80 -46q-22 -38 -22 -95q0 -58 20 -93q18 -30 46 -42q16 -7 36 -7q53 0 80 46q21 38 21 96q0 57 -22 95q-26 46 -79 46zM2381 8h-37v366h37 v-366zM2489 8h-43v55h43v-55zM2689 102h35q-10 -102 -90 -102q-72 0 -89 82q-5 25 -5 53q0 61 22 98q28 49 77 49q78 0 85 -98h-35q-7 58 -50 58q-62 0 -62 -106q0 -99 58 -99q45 0 54 65zM2851 40q-64 0 -64 102q0 101 64 101t64 -101q0 -102 -64 -102zM2851 283 q-53 0 -80 -46q-22 -38 -22 -95q0 -58 20 -93q18 -30 46 -42q16 -7 36 -7q53 0 80 46q21 38 21 96q0 57 -22 95q-26 46 -79 46zM2995 8v267h36v-38q17 28 37 38q12 6 27 6q41 0 59 -42q27 42 65 42q56 0 66 -53q3 -15 3 -42v-178h-38v187q0 45 -37 45q-27 0 -41 -24 q-12 -20 -12 -48v-160h-37v185q0 48 -36 48q-26 0 -42 -26q-14 -22 -14 -50v-157h-36zM3316 8l95 366h31l-95 -366h-31zM3541 238h-37v-230h-37v230h-30v36h30v47q0 58 56 58q8 0 18 -1v-41q-10 1 -14 1q-23 0 -23 -31v-33h37v-36zM3664 40q-64 0 -64 102q0 101 64 101 t64 -101q0 -102 -64 -102zM3664 283q-53 0 -80 -46q-21 -38 -21 -95q0 -58 20 -93q17 -30 46 -42q15 -7 35 -7q54 0 80 46q22 38 22 96q0 57 -22 95q-27 46 -80 46zM3808 8v267h35v-38q16 27 39 38q15 7 31 7q48 0 65 -43q8 -18 8 -60v-171h-37v168q0 65 -44 65 q-45 0 -57 -54q-3 -12 -3 -32v-147h-37zM4018 275h30v74h37v-74h35v-37h-35v-174q0 -21 21 -21q6 0 14 1v-36q-11 -4 -27 -4q-45 0 -45 58v176h-30v37zM4157 8v267h34v-38q17 27 40 38q14 7 31 7q47 0 65 -43q8 -18 8 -60v-171h-38v168q0 65 -43 65q-45 0 -58 -54 q-3 -12 -3 -32v-147h-36zM4481 243q37 0 52 -37q7 -18 8 -44h-122q6 81 62 81zM4481 40q-60 0 -62 85h160q0 47 -3 66q-9 56 -49 80q-20 12 -45 12q-52 0 -80 -47q-23 -40 -23 -95q0 -97 56 -130q20 -11 45 -11q39 0 64.5 27t31.5 66h-36q-17 -53 -59 -53zM4660 8h-36v267 h34v-46q23 52 60 52q5 0 12 -1v-48q-10 2 -14 2q-36 0 -51 -38q-5 -12 -5 -36v-152z" />
<glyph unicode="`" horiz-adv-x="507" d="M99 841l314 -68l-260 187zM173 878l13 20l147 -94z" />
<glyph unicode="a" d="M854 67v-69q-8 -2 -22 -2q-95 0 -139 55q-55 -52 -155 -52q-17 0 -33 2v66q31 0 56 9q35 12 35 36q0 14 -18 48q-13 22 -26 45h-310q-26 -62 -26 -78q0 -62 92 -60v-66q-14 -3 -34 -3q-69 0 -108 42q-59 -44 -120 -44q-23 0 -43 9v66q73 3 100 66q54 125 109 251 q90 211 90 235q0 31 -40 31q-12 0 -25 -2l1 80q20 5 48 5q92 0 137 -60q20 28 61 44q37 15 75 15q21 0 42 -4v-72q-25 -1 -43 -13q-22 -14 -22 -37q0 -15 10 -34l227 -439q39 -75 81 -70zM644 127q0 41 -16 72l-179 359q-10 18 -41 34zM492 311l-113 226l-90 -225z" />
<glyph unicode="b" horiz-adv-x="707" d="M691 218q0 -110 -101 -173q-86 -53 -204 -53q-103 0 -173 57q-25 -25 -69 -39q-40 -13 -79 -13l-10 1v71q32 8 51.5 34.5t19.5 60.5v394q0 49 -19 78q-24 35 -70 29v68q17 2 42 2q104 0 140 -39q85 49 188 49q97 0 174 -56q84 -62 84 -154q0 -83 -87 -132q49 -21 82 -78 q31 -53 31 -107zM548 558q0 48 -52 85q33 -36 33 -92q0 -44 -27 -87q46 42 46 94zM485 558q0 46 -22 77q-25 35 -69 35q-32 0 -59 -11q-34 -16 -34 -45v-179q17 -1 32 -1q152 0 152 124zM586 224q0 51 -55 94q32 -44 32 -102q0 -56 -40 -103q63 48 63 111zM523 221 q0 55 -40 93t-96 38q-39 0 -84 -21v-164q0 -87 82 -87q58 0 98 40.5t40 100.5zM190 522q0 82 -32 115q12 -21 12 -84v-350q0 -80 -20 -101q40 13 40 84v336z" />
<glyph unicode="c" horiz-adv-x="638" d="M625 228q-12 -99 -95 -169.5t-183 -70.5q-148 0 -235 110q-82 101 -82 254q0 160 72 268q83 124 235 124q84 0 171 -49l19 33l61 -4v-244l-59 -2q-41 181 -158 181q-87 0 -131 -104q-34 -78 -34 -178q0 -104 35 -183q46 -104 137 -104q66 0 116 51q46 47 59 114zM213 62 q-53 53 -85 144q-29 84 -29 165q0 120 57 244q-81 -82 -81 -247q0 -94 31 -172q36 -90 107 -134z" />
<glyph unicode="d" horiz-adv-x="668" d="M664 373q0 -163 -67 -261q-79 -115 -234 -115q-112 0 -166 62q-23 -29 -63.5 -45.5t-79.5 -16.5q-14 0 -27 2v64q33 7 54 33.5t21 61.5v393q0 48 -14 79q-20 42 -62 36v67q16 3 39 3q91 0 118 -54q61 56 172 56q157 0 237 -107q72 -95 72 -258zM542 376q0 191 -78 261 q54 -101 54 -252q0 -169 -55 -270q79 69 79 261zM478 392q0 92 -22 165q-32 109 -100 109q-87 0 -87 -107v-374q0 -36 15 -64q19 -34 52 -34q84 0 119 118q23 75 23 187zM164 517q0 83 -31 115q12 -21 12 -84v-350q0 -80 -20 -101q39 13 39 84v336z" />
<glyph unicode="e" horiz-adv-x="689" d="M661 241l-18 -242h-54l-27 46q-81 -47 -175 -47q-91 0 -155 58q-64 -59 -134 -59q-17 0 -33 5v74q31 0 47 37q13 28 13 63l-1 366q0 50 -17 83q-22 44 -67 37v73l20 1q122 3 144 -51q74 51 161 51q32 0 83 -15.5t72 -15.5q37 0 43 33l55 -27l1 -155l-57 -18 q-10 49 -53 79t-94 30q-72 0 -99 -40q-19 -30 -19 -97v-41q1 -27 1 -42q18 -8 39 -8q68 0 72 99l70 -3q1 -8 1 -21q0 -99 -44 -110q47 -35 52 -112h-80q-14 36 -24 47q-16 16 -51 16q-23 0 -34 -15q0 -110 7 -143q19 -91 92 -91q79 0 127 42q52 44 55 123zM191 517 q0 28 -8 61q-10 38 -25 54q12 -21 12 -84v-350q0 -80 -20 -101q41 13 41 84v336z" />
<glyph unicode="f" horiz-adv-x="612" d="M605 522l-79 -11q-62 146 -171 146q-33 0 -55 -18.5t-22 -51.5v-162q8 -2 19 -2q78 0 94 88h76q1 -46 -2 -63q-9 -40 -46 -52q50 -38 50 -104q0 -10 -2 -20l-73 -2q-9 27 -30 47.5t-47 20.5q-29 0 -35 -3l-1 -128q0 -55 22 -92q26 -45 77 -46v-73q-9 -2 -25 -2 q-82 0 -133 59q-58 -56 -151 -56q-17 0 -35 3v67q32 7 50 36t18 63v407q0 40 -17 68q-20 34 -56 31v63h16q109 3 158 -43q83 48 150 48q49 0 101 -24q20 -22 41 -22q24 0 35 34l48 -14zM167 527q0 27 -9 61q-10 38 -25 54q12 -21 12 -84v-350q0 -80 -20 -101q42 13 42 84 v336z" />
<glyph unicode="g" horiz-adv-x="656" d="M639 342q-62 -20 -62 -120v-217h-100l-31 28q-64 -40 -144 -40q-42 0 -70 9q-242 75 -242 378q0 144 83 251q90 115 230 115q83 0 148 -35l5 28l80 -15l46 -185l-74 -19q-10 62 -57 105.5t-109 43.5q-93 0 -137 -113q-31 -80 -31 -190q0 -108 27 -181q39 -105 127 -105 q41 0 69.5 23t28.5 64v95q0 32 -24 55.5t-58 30.5v81q95 -5 157 -59q39 44 138 47v-75zM492 246q0 22 -12 49q-13 32 -31 34q21 -36 21 -130q0 -24 -1.5 -63t-1.5 -50l24 -22zM153 84q-85 136 -85 303q0 134 64 249q-44 -47 -70 -123q-26 -71 -26 -138q0 -173 117 -291z" />
<glyph unicode="h" horiz-adv-x="820" d="M791 2q-21 -3 -49 -3q-87 0 -128 42q-49 -43 -131 -43q-22 0 -45 4v66q41 1 66 35q23 31 23 74l1 177l-219 -1v-199q0 -82 91 -87v-68q-10 -1 -27 -1q-105 0 -146 44q-55 -43 -132 -43q-26 0 -52 7l-1 64q40 4 69 26q33 25 33 62l-1 425q0 40 -24 63t-65 20l-1 67 q16 3 39 3q82 0 132 -39q52 39 117 39q32 0 61 -12v-60q-38 -2 -64 -23q-28 -24 -28 -60l1 -126h219v58q1 39 1 59q0 87 -85 94v61q28 8 63 8q76 0 113 -46q48 47 117 47q26 0 50 -8l1 -64h-7q-34 1 -54 -16q-23 -18 -23 -52v-428q0 -89 84 -98zM593 191v336 q0 27 -10.5 62.5t-26.5 52.5q12 -21 12 -84v-350q0 -80 -20 -101q21 7 34 36q11 24 11 48zM208 527q0 27 -10.5 62.5t-26.5 52.5q12 -21 12 -84v-350q0 -80 -20 -101q21 7 34 36q11 24 11 48v336z" />
<glyph unicode="i" horiz-adv-x="411" d="M377 659q-32 -1 -52.5 -21.5t-20.5 -52.5v-440q0 -70 67 -80v-64q-14 -3 -34 -3q-86 0 -132 57q-17 -27 -53 -42.5t-70 -14.5l-20 1v66q32 2 50.5 27t18.5 58l-1 411q0 105 -79 99v67q23 10 55 10q63 0 109 -48q38 50 115 50q22 0 46 -6zM196 191v336q0 28 -9 61 q-9 38 -25 54q13 -21 13 -84v-350q0 -80 -20 -101q21 7 32 36q9 23 9 48z" />
<glyph unicode="j" horiz-adv-x="666" d="M645 733v-76q-36 1 -61 -19t-25 -55v-293q0 -304 -277 -304q-93 0 -168 42q-89 52 -89 138q0 49 30 87.5t77 38.5q46 0 79 -30.5t33 -75.5q0 -59 -48 -88q30 -48 76 -48q45 0 78.5 35.5t33.5 81.5v384q0 48 -26 79t-73 32v68q25 6 60 6q95 0 143 -55q19 26 56 41 q33 14 68 14q16 0 33 -3zM445 175v377q0 69 -36 86q15 -27 15 -59l1 -407q0 -47 -24 -71q44 25 44 74zM135 251q-33 5 -52 -28q-15 -27 -15 -62q0 -42 32 -66q-15 18 -15 48q0 15 3 29q17 62 47 79z" />
<glyph unicode="k" horiz-adv-x="728" d="M717 70v-68q-26 -8 -62 -8q-77 0 -127 44q-50 -41 -117 -41q-24 0 -47 7l1 77q51 8 51 39q0 7 -98 218l-73 -75v-97q0 -38 20 -61.5t58 -20.5v-83q-12 -3 -30 -3q-73 0 -117 54q-56 -55 -150 -55q-15 0 -31 2v67q37 6 59 40q19 30 19 70v375q0 50 -10 73q-16 34 -61 35 v69q31 8 69 8q74 0 106 -36q16 36 83 36q24 0 52 -6v-69q-32 -5 -51.5 -31t-19.5 -59v-144l173 168q19 17 19 38q0 26 -49 26l1 70q21 6 49 6q61 0 94 -36q42 37 98 37q23 0 45 -9v-70h-4q-42 2 -92 -48l-132 -133l153 -318q14 -30 53 -59t68 -29zM476 148q0 31 -45 125 q-32 62 -63 124l-18 -20l70 -142q46 -102 44 -147q12 28 12 60zM140 191v336q0 83 -31 115q12 -21 12 -84v-350q0 -80 -20 -101q39 13 39 84z" />
<glyph unicode="l" horiz-adv-x="638" d="M650 255l-62 -256h-70l-17 32q-77 -34 -160 -34q-94 0 -144 57q-45 -55 -110 -55q-26 0 -52 11v71q42 0 67 35q22 31 22 74l1 386q0 75 -94 88v67q20 4 47 4q86 0 133 -49q45 51 131 51q18 0 36 -3v-71h-3q-38 2 -59.5 -23.5t-21.5 -65.5v-427q40 -24 95 -24 q128 0 203 163zM189 191l-1 336q0 27 -9 61q-10 38 -25 54q12 -21 12 -84v-350q0 -80 -20 -101q43 13 43 84z" />
<glyph unicode="m" horiz-adv-x="960" d="M931 74l-1 -72q-17 -3 -42 -3q-93 0 -138 48q-21 -25 -70 -39q-40 -11 -81 -11q-20 0 -41 2v72q45 4 74 36t29 78v270l-212 -283l-218 318v-311q0 -78 89 -105v-73q-16 -2 -39 -2q-81 0 -109 41q-40 -43 -110 -43q-14 0 -29 2v80q40 3 67 29.5t27 67.5v367q0 109 -89 108 v79h246l206 -311l218 311h206l1 -89q-33 1 -53 -21t-20 -55v-385q0 -85 89 -106zM733 189v372l-19 -26l-1 -333q0 -83 -49 -110q31 10 50 37.5t19 59.5zM461 276l-192 283q-16 23 -41 25l217 -325z" />
<glyph unicode="n" horiz-adv-x="773" d="M755 655q-31 -1 -51.5 -21t-20.5 -51v-578h-74l-337 388v-226q0 -96 81 -93v-72q-15 -6 -38 -6q-58 0 -100 42q-52 -41 -112 -41q-9 0 -17 1v74q31 3 50.5 26t19.5 55v370q0 54 -27 89q-30 38 -84 37v81h171l360 -406v236q0 41 -16 67q-21 30 -59 30v77q11 2 28 2 q68 0 105 -44q27 45 99 45q10 0 22 -1v-81zM597 125l-351 403v-31l351 -404v32z" />
<glyph unicode="o" horiz-adv-x="660" d="M658 368q0 -151 -83 -263q-92 -123 -238 -123q-141 0 -233 123q-84 113 -84 259q0 150 85 262q93 123 239 123q141 0 232 -123q82 -112 82 -258zM536 348q0 153 -94 283l3 -4q59 -125 59 -278q0 -159 -58 -263q90 112 90 262zM454 345q0 97 -18 180q-29 129 -92 129 q-74 0 -106 -120q-19 -75 -19 -182q0 -86 26 -171q35 -115 99 -115q110 0 110 279zM187 69q-91 155 -91 310q0 136 71 259q-45 -52 -72.5 -129t-27.5 -147q0 -155 120 -293z" />
<glyph unicode="p" horiz-adv-x="657" d="M643 475q0 -113 -75 -190t-188 -77q-48 0 -89 22v-90q0 -35 24 -52t60 -13v-71q-27 -9 -61 -9q-68 0 -106 48q-49 -48 -136 -48q-18 0 -36 3v65q32 0 54 18.5t22 49.5v437q0 36 -18 59q-21 26 -56 25v80q18 3 43 3q89 0 130 -51q82 59 168 59q114 0 189 -77t75 -191z M540 495q0 80 -63 151q41 -72 41 -163q0 -93 -56 -165q34 32 56 81.5t22 95.5zM474 495q0 22 -2 39q-4 36 -28 73q-28 45 -61 45q-38 0 -67 -26.5t-29 -63.5l-1 -232q24 -13 55 -13q69 0 104 58q29 47 29 120zM170 186v336q0 83 -32 115q13 -21 13 -84v-350q0 -80 -20 -101 q39 13 39 84z" />
<glyph unicode="q" horiz-adv-x="696" d="M691 -21q0 -48 -33.5 -82.5t-80.5 -34.5q-100 0 -180 125q-27 -5 -55 -5q-141 0 -233 123q-84 112 -84 259q0 150 85 262q93 123 239 123q141 0 232 -123q82 -112 82 -258q0 -101 -41 -191q-43 -94 -118 -146q33 -32 55 -32q27 0 51 28q20 23 30 53q51 -47 51 -101z M541 348q0 148 -91 278q59 -125 59 -277q0 -155 -56 -259v0q88 111 88 258zM459 345q0 97 -18 180q-29 129 -92 129q-74 0 -106 -120q-19 -75 -19 -182q0 -86 26 -171q35 -115 99 -115h5q-18 38 -52 125l68 33q18 -38 56 -96q33 73 33 217zM192 69q-94 159 -94 310 q0 131 74 259q-45 -52 -72.5 -129t-27.5 -147q0 -155 120 -293z" />
<glyph unicode="r" horiz-adv-x="742" d="M733 116q0 -51 -41.5 -85t-93.5 -34q-93 0 -141 79q-30 74 -59 147q-32 79 -88 79q-19 0 -35 -8q-20 -11 -20 -29v-90q0 -36 22 -64t57 -29v-78q-20 -4 -47 -4q-82 0 -109 52q-42 -56 -117 -56q-27 0 -56 10v65q32 4 52 28.5t20 56.5v411q0 82 -53 82q-10 0 -22 -4v78 q36 16 79 16q77 0 118 -62q30 30 83 50q50 18 95 18q106 0 174.5 -70.5t68.5 -176.5q0 -64 -38 -109.5t-101 -57.5q47 -24 78 -77q20 -43 40.5 -83.5t45.5 -40.5q33 0 66 61q22 -40 22 -75zM523 538q0 54 -61 93q36 -46 36 -108q0 -48 -28 -91q53 48 53 106zM453 535 q0 45 -20 72q-22 31 -65 31q-108 0 -108 -92v-160q20 -5 38 -5q70 0 112.5 42t42.5 112zM563 55q-35 23 -70 119q-33 90 -75 105q15 -10 36 -70q27 -77 41 -102q29 -52 68 -52zM144 182v341q0 28 -9 60q-11 37 -27 54q12 -21 12 -84v-355q0 -80 -20 -101q21 8 33 37 q11 24 11 48z" />
<glyph unicode="s" horiz-adv-x="627" d="M590 232q0 -107 -88 -177q-82 -66 -191 -66q-49 0 -109.5 25t-56.5 25q-16 0 -12 -29h-76l-11 264l71 5q18 -62 77 -127q66 -73 122 -73q44 0 77 30t33 74q0 74 -101 103q-185 53 -189 55q-101 52 -101 180q0 101 76 164q71 59 175 59q96 0 197 -54l11 36l57 -8l11 -238 l-60 -5q-43 190 -173 190q-46 0 -79 -36t-33 -83q0 -37 61 -60l128 -36q81 -24 113 -57q71 -73 71 -161zM477 215q0 116 -208 146q-74 11 -123 60q-53 51 -54 124q-4 -21 -4 -40q0 -69 50 -111q37 -32 112 -53l122 -30q32 -9 61 -52.5t29 -77.5q0 -16 -4 -32q19 34 19 66z " />
<glyph unicode="t" horiz-adv-x="653" d="M635 722v-247l-73 -41q-9 97 -15 118q-20 83 -71 83q-26 0 -48.5 -20.5t-22.5 -45.5v-405q0 -36 18 -62q19 -30 53 -28l1 -70q-16 -5 -38 -5q-70 0 -108 51q-46 -51 -139 -51q-12 0 -25 1v68q29 5 47.5 26.5t18.5 50.5v428q0 61 -53 61q-57 0 -88 -80q-22 -57 -25 -126 l-66 36v252l40 15q21 -24 63 -24q25 0 69 18.5t71 18.5q55 0 82 -43q11 18 49 32q33 13 58 13q32 0 70.5 -21t57.5 -21q24 0 27 27zM300 186l-1 336q0 82 -33 115q13 -21 13 -84v-350q0 -80 -20 -101q41 13 41 84z" />
<glyph unicode="u" horiz-adv-x="705" d="M689 655h-6q-31 0 -48 -20.5t-17 -52.5v-378q0 -93 -79 -156q-73 -60 -168 -60q-112 0 -188 76.5t-76 188.5v320q0 39 -18 64q-21 31 -58 25v70q19 5 47 5q77 0 116 -50q33 50 112 50q18 0 37 -3v-72q-32 -1 -51.5 -24t-19.5 -56v-355q0 -62 32.5 -98.5t96.5 -36.5 q57 0 88 37.5t31 95.5v322q0 48 -20 78q-24 35 -69 36l-1 74q13 2 31 2q68 0 103 -40q27 39 79 39q22 0 45 -10zM192 116q-19 59 -19 137l1 265q0 70 -29 118q4 -20 4 -76v-302q0 -72 43 -142z" />
<glyph unicode="v" horiz-adv-x="777" d="M774 732v-79h-6q-67 4 -105 -102l-203 -552h-140l-192 545q-37 106 -122 106v76q27 8 63 8q89 0 128 -61q24 30 72 48q43 15 86 15q17 0 34 -2l1 -80q-32 -1 -56 -14q-30 -17 -30 -46q0 -21 61 -189q38 -102 76 -203l125 351q7 20 7 37q0 58 -70 65v77q17 4 37 4 q56 0 90 -38q44 39 105 39q20 0 39 -5zM359 75l-145 409q-21 61 -30 80q-20 47 -45 71l195 -561z" />
<glyph unicode="w" horiz-adv-x="1004" d="M961 652q-11 3 -21 3q-49 0 -71 -79l-161 -577l-113 1l-127 360l-96 -360h-122l-170 582q-18 62 -78 72l1 78q16 3 31 3q77 0 122 -49q53 51 122 51q32 0 55 -9l1 -71q-36 -3 -52 -12q-23 -13 -23 -46q0 -31 31 -129l42 -132l103 396l110 1l140 -424l48 156 q37 123 37 146q0 26 -25 39q-21 11 -49 10v72q14 4 29 4q50 0 96 -33q52 30 104 30q23 0 36 -5v-78zM656 55l-178 539l-9 -43l163 -495zM302 52l-139 479q-23 79 -58 105q14 -21 32 -83l144 -501h21z" />
<glyph unicode="x" horiz-adv-x="745" d="M730 6q-27 -7 -63 -7q-79 0 -126 43q-22 -44 -117 -44q-26 0 -56 5v64q66 8 66 46q0 18 -35 68l-46 64q-24 -34 -49 -68q-35 -53 -35 -77q0 -33 46 -34l1 -65q-19 -5 -43 -5q-65 0 -96 39q-39 -41 -109 -39l-16 1v80q68 11 100 59l138 209l-117 186q-38 61 -61 83 q-42 41 -92 35v81q29 8 65 8q72 0 104 -37q46 36 123 36q24 0 49 -5v-73h-7q-37 2 -37 -21q0 -14 35 -69q22 -35 45 -69l44 60q36 52 36 65q0 26 -57 30v77q14 3 35 3q62 0 97 -28q38 29 94 29q20 0 40 -5v-75q-59 -15 -99 -74l-123 -187l132 -213q64 -104 134 -96v-80z M491 130q0 31 -23 67l-224 343q-28 42 -44 62q-29 35 -56 49q14 -15 44 -61l215 -335q25 -36 51 -73q31 -48 31 -80q6 10 6 28z" />
<glyph unicode="y" horiz-adv-x="739" d="M740 735l-1 -80q-35 -1 -75 -32q-33 -26 -56 -60l-157 -239l1 -183q0 -28 26 -47t59 -17v-69q-30 -10 -66 -10q-76 0 -105 55q-46 -54 -126 -54q-30 0 -61 10v66h4q33 0 55.5 16.5t22.5 48.5v168l-157 260q-31 51 -34 56q-26 33 -53 33q-6 0 -12 -2v77q29 7 65 7 q87 0 116 -50q32 48 113 48q21 0 44 -4l-1 -75q-16 4 -28 4q-29 0 -29 -21q0 -15 51 -99q33 -50 65 -101q31 42 63 85q48 70 48 99q0 41 -69 34l-1 72q29 5 63 5q84 0 103 -42q53 44 119 42zM325 156v178l-158 268q-10 17 -31 37q-24 22 -40 24q23 -9 108 -157 q51 -90 102 -181l1 -28t1 -52q0 -137 -26 -154q43 17 43 65z" />
<glyph unicode="z" horiz-adv-x="731" d="M706 678l-423 -554q52 -26 101 -26q72 0 138 57q59 50 90 123l81 -21l-19 -257h-76q-11 33 -51 33q-26 0 -80.5 -19t-91.5 -19q-34 0 -93 15t-87 15q-65 0 -107 -30l-61 127l408 505q-38 14 -74 14q-65 0 -121 -49q-50 -45 -74 -110l-65 23v229l80 1l7 -53q66 57 173 57 q76 0 96 -11q91 -52 202 -52q24 0 47 2zM507 625l-19 5l-400 -491l11 -19z" />
<glyph unicode="|" horiz-adv-x="774" d="M567 717l-7 -8q-39 34 -83 38q-51 36 -130 48l2 10q78 -12 132 -49q45 -5 86 -39zM609 673l-5 -8q-127 85 -307 120l2 9q180 -34 310 -121zM648 624l-5 -8q-77 54 -175 97q-111 47 -192 52l1 10q85 -5 194 -52q93 -40 177 -99zM672 586l-5 -8q-90 65 -206 113 q-129 54 -226 57v10q103 -3 230 -56q110 -46 207 -116zM695 524l-4 -9q-18 8 -77 58l-21 2q-28 27 -101 59q-62 26 -113 39q-114 30 -198 30v10q98 0 201 -30q160 -47 216 -98l3 -1q-21 25 -73 53q-115 63 -308 93l1 10q260 -40 374 -136q7 -7 23 -22l27 -3q14 -7 40 -23 l-6 -8q-11 8 -37 21l-10 2q20 -18 63 -47zM694 481l-4 -9q-23 10 -62 37q-26 24 -93 60q-122 65 -282 91l1 10q162 -27 286 -93q25 -13 77 -49q48 -33 77 -47zM713 486l-7 -8q-103 87 -247 146q-154 62 -279 57v10l10 1q166 4 358 -98q96 -52 165 -108zM717 396l-7 -6 q-37 47 -84 88l-2 -1l-1 4q-157 135 -306 138l-1 -2l-3 2v0q-14 13 -53 10l-1 10q10 1 19 0q-13 5 -23 3l-2 10h8q23 1 55 -23q153 0 312 -140q1 0 3 1q29 0 69 -40l-7 -7q-33 33 -55 37q48 -44 79 -84zM723 354l-8 -6q-74 110 -196 184q-131 79 -254 76l-1 10h6 q167 4 325 -127q79 -66 128 -137zM723 243l-10 -3l-8 24l10 3zM719 334l-8 -6q-129 169 -234 213q125 -69 235 -236l-8 -5q-52 80 -123 148q-85 82 -158 106v0q-73 30 -152 32l1 10q83 -2 158 -34q31 0 76 -24q98 -54 213 -204zM705 182l-10 -2l-7 26l9 3zM238 648 q-8 -6 -18 -7q-7 0 -18 5v-1l-3 1l-34 -8l-2 10l35 8q4 6 10 9l-45 -6l-2 10l48 7l2 -9q7 4 19 8l3 -10q-16 -4 -24 -11q8 -3 13 -3q4 0 9 5zM709 280l-8 -5q-135 204 -285 259q-21 7 -63 20.5t-74 12.5q-51 -1 -100 -23q-30 -13 -89 -51l-6 8q98 64 131 67q21 5 64 9 q34 1 76 -13q55 -18 75 -25q40 -16 70 -35q105 -66 209 -224zM245 635l-2 -10q-16 2 -33 2q-36 -1 -65 -15l-4 9q30 15 71 16q17 0 33 -2zM257 616l-2 -9q-11 2 -23 2q-41 -1 -99 -22l-3 10q59 21 101 21q14 1 26 -2zM705 240l-10 -2q-18 60 -42 76q36 -65 42 -104l-10 -1 q-6 41 -46 109v0q-2 2 -4 7v0q-37 66 -100 119.5t-134 77.5q-15 5 -56 13q-7 3 -19 7q-25 6 -53 6q-30 -1 -78 -18q-53 -20 -65 -42v1l-11 -10l-7 7l7 6q-17 -1 -34 -31l-9 5q21 36 43 36q5 0 9 -2q69 57 145 58q29 0 55 -7q7 -2 20 -6q23 -5 70 -18q145 -54 227 -199 q34 -2 60 -88zM267 592l-37 -8q-6 -15 -29 -16q-19 0 -39 -12l-5 8q22 14 49 14q10 0 14 9q-7 3 -16 3q-29 -1 -77 -30l-5 9q48 29 81 30q15 0 24 -5l38 8zM157 551q-15 0 -37 -20l-6 8q24 21 38 22h5v-10zM659 50q-14 -31 -27 -41l-6 7q-18 -27 -54 -46l-5 9q57 31 67 78 l9 -2q-4 -19 -15 -37q9 7 21 36zM593 54q-26 -38 -53 -38q-30 -1 -57 44q-12 21 -37 64q-35 60 -90 154l-3 4l9 5l2 -4q53 -90 88 -150q13 -23 39 -68q25 -39 47 -39q23 1 47 34zM635 4q-20 -30 -41 -38l-4 10q19 7 37 33zM696 163l-10 -2q-5 33 -23 56q-25 116 -130 211 q-34 30 -93 58q-55 25 -104 36q-35 7 -60 7q-56 -1 -112 -45q-11 -19 -29 -34q4 3 11 4q23 29 52 37q24 25 75 26q62 1 131 -26q130 -49 197 -151q41 -62 56 -118q31 -43 35 -108h-10q-2 38 -17 73q8 -38 8 -67q1 -34 -8 -52l-9 5q8 16 7 46q0 34 -12 84q-12 54 -27 80 q-22 37 -33 54q-20 30 -39 50q-54 57 -152 95q-67 26 -127 25q-46 -1 -68 -24q30 17 71 18q74 1 153 -43h4q28 1 89.5 -49.5t108.5 -159.5q23 -54 24 -124q1 -28 -4 -55l-10 2q4 25 4 58q-2 89 -56.5 181.5t-132.5 130.5q70 -49 119.5 -130t61.5 -165l1 -2l-1 -1 q2 -15 2 -28q1 -56 -32 -95q-19 -23 -28 -32q-17 -15 -35 -23q-28 -29 -58 -30q-45 -1 -87 59q-27 39 -63 126t-48 106q6 -62 69 -184q60 -115 131 -113q42 0 88 42l7 -8q-21 -18 -39 -29q33 14 71 35l5 -9q-99 -55 -158 -56q-9 0 -16 1q-8 -2 -16 -2q-49 -1 -88.5 53.5 t-46.5 66.5q-26 39 -38 71v4q0 15 -8 27q9 -60 38 -107q46 -73 61 -88q38 -39 97 -38h24q19 1 46 15q41 21 92 36l5 2l3 -10l-5 -1q-51 -16 -90 -36q-30 -15 -51 -16h-24q-81 -1 -137 84q-64 99 -71 170l-2 2l2 2q-21 63 -22 113q-1 33 8 59l9 -3q-7 -24 -7 -55 q1 -49 21 -112q22 -18 21 -46q28 -72 90 -143q36 -41 72 -40q9 0 17 2q6 -1 17 -1q15 0 34 5q-4 -1 -8 -1q-84 -1 -141 120q-67 142 -70 188q-1 7 -2 20l1 1q-3 13 -3 27q-1 60 40 70q13 2 38 8q-13 6 -23 6q-15 -1 -28 -11l-6 8q16 13 35 13q12 0 31 -9q62 -30 113 -112 q10 -16 43 -85q15 -30 42 -91q3 -7 4 -16q2 5 2 12t-2 14l-3 5l2 1q-5 20 -18 43l-6 12q-6 17 -18 50q-54 127 -143 173q-29 15 -64 14q-70 -1 -70 -68h-10q0 77 77 78q40 1 71 -15q92 -47 147 -176q6 -18 19 -52q3 -4 7 -13q14 -26 18 -47q5 -7 8 -7q4 0 4 11 q-72 198 -134 248q-41 33 -56 41q-24 13 -68 20l2 10q45 -8 70 -21q16 -8 58 -42q65 -52 138 -255q-1 -23 -12 -23q-3 0 -7 3v-3q1 -35 -28 -35q-29 -1 -56 53q-57 111 -61 118q-52 94 -77 93h-2q-3 -12 -3 -22q0 -17 19 -47q20 -33 87 -152q40 -74 80 -73q10 0 20 6 q0 1 1 1q48 35 47 68q-1 40 -47 136q-45 92 -76 125q-62 63 -139 86q-6 -6 -41 -9q-39 -3 -64 -18q-37 -25 -56 -84l-10 3q33 99 135 110q11 0 28 4l-1 -1l1 -1l3 4q-5 -1 -11 -1q-4 0 -13 1.5t-12 1.5q-24 0 -51 -11q-99 -39 -96 -193q1 -35 6 -61q15 -83 46 -162 q43 -110 90 -131q4 -4 11 -3q7 0 16 3q11 -19 61 -17v-10l-5 -1q-34 -1 -53 10l1 -4q-11 -3 -22 -3q-22 0 -44 10l4 9q21 -9 40 -9q10 0 15 2l-1 1q-7 -1 -12 -1q-7 -1 -17 5q-18 11 -28 20q-40 40 -74 131q-29 77 -38 148q-6 39 -6 63q-3 148 87 196q-104 -41 -102 -166 q0 -14 3 -34q1 -12 2 -37q22 -211 137 -311l-6 -8q-89 75 -125 224q-13 55 -20 150q-1 -23 -1 -48q4 -203 116 -301l-6 -8q-69 61 -96 143q-22 65 -24 170q-2 148 49 216q-35 -35 -54 -117q-16 -68 -15 -132q0 -24 3 -49l-10 -1q-3 26 -3 50q-1 56 13 122q16 76 43 115 l-11 -16v-3h-3q-45 -73 -48 -171l-10 1q2 91 42 162q-28 -25 -43 -111l-10 2q11 60 29 95l-8 3q13 35 32 48l6 -8q-15 -11 -25 -36q12 19 29 24q37 55 88 85q-25 -6 -46 -31l1 -1q-2 -2 -5 -4q-13 -12 -27 -32l-8 5q6 9 11 15q-8 -6 -15 -17l-9 5q7 11 15 19l-11 -6l-1 -1 q-36 -27 -39 -81l-10 1q4 57 41 87v1h2q2 27 57 50l1 3l2 -1q53 45 119 46q110 2 241 -87q54 -37 96 -101.5t57 -129.5q18 -25 23 -58zM115 476l-26 -35h-1l-17 -29l-9 5l18 31l1 -1l26 35zM436 -75l-4 -9q-34 13 -60 41q-22 29 -45 58h-1v1q-90 111 -93 257q0 11 1 24 l10 -1q-1 -11 -1 -22q3 -130 84 -243q-6 32 -48 122q-29 59 -30 124q-1 92 71 103l2 -10q-64 -10 -62 -92q1 -61 28 -121q51 -114 49 -138l42 -54q25 -28 57 -40zM457 -131q-28 -5 -51 -5q-47 -1 -68 11q-36 21 -78 88q-37 60 -50 107q-28 98 -30 185q-1 49 24 100 q8 17 10 20q7 12 16 16l5 -9q-12 -6 -24 -35l-4 1l3 -2q-21 -24 -20 -90q2 -86 29 -183q13 -45 49 -104q41 -67 75 -85q19 -11 61 -10q23 0 52 5zM390 -111l-1 -10l-5 1q-19 1 -47 23q-94 74 -132 273q-5 31 -6 65q-3 168 109 170h15l-1 -10h-11q-104 -2 -101 -157 q0 -33 5 -66q13 -83 57 -172q56 -112 118 -117zM588 -124l-52 -21l-4 9l52 22zM618 -84q-100 -66 -229 -74v10q122 5 223 72zM527 -147q-12 -8 -50 -22l-4 9q17 6 48 22zM311 -114l-6 -8q-69 59 -108 172q-33 97 -35 203q0 32 3 60l10 -1q-4 -38 -4 -75q4 -194 112 -322 q17 -20 28 -29zM471 -168q-19 -8 -84 -15l-1 10q28 2 81 14zM468 -188q-38 -17 -95 -17h-9v10h10q53 0 90 16zM164 -45l-7 -6q-64 76 -67 244v33h10v-35q3 -160 64 -236zM383 -185l-62 -5l-1 10l62 5zM342 -160q-16 -4 -31 -5q-17 0 -35 4l2 10q18 -4 33 -4q13 0 29 5z M213 -102l-6 -8q-32 23 -43 44l9 5q10 -19 40 -41zM428 447l-3 1l2 -1h1zM425 448l-4 2v0zM449 396q-14 18 -33 22q9 -11 33 -22zM611 110q-1 21 -10.5 42t-18.5 41q-3 9 -10 28q-27 67 -67 113q-14 18 -45 49l-1 -2q-45 18 -56 40q-16 11 -53 24q-3 -6 -10 -9 q87 -25 146 -89q67 -73 123 -253q2 8 2 16zM623 172q-20 91 -79 169q-61 82 -142 119q-67 32 -125 31q-70 -2 -128 -66q54 56 132 58q20 0 74 -11q12 -2 35 -9q46 -18 109.5 -83.5t82.5 -111.5q24 -62 41 -96zM629 118q0 12 -1 24q-12 16 -30 60q-24 60 -25 62q-8 15 -36 54 q-78 108 -151 136q-9 3 -33 8q-56 11 -72 10q-9 0 -19 -1q30 1 76 -12t69 -29l2 1l1 -2q34 -2 53 -36q10 -6 50 -52q34 -40 64 -110q5 -11 14 -34q3 -5 9 -16q20 -38 21 -69q0 -23 -10 -40q-5 -37 -48 -67q-5 -26 -41 -27q-48 -1 -116 108q7 -26 41 -64l-7 -7q-44 49 -45 77 q0 5 1 10q-78 132 -79 180q-1 27 16 28q6 0 13 -3q3 1 6 1q30 0 85 -92q34 -59 63 -125q21 -48 47 -47q-7 5 -13 15q-1 2 -31 57q-25 48 -76 141q-39 68 -85 67q-37 -1 -36 -37q0 -17 10 -39v0q50 -125 68 -160q59 -117 105 -127l-2 -10q-67 15 -139 192q-17 40 -49 120v1 q-3 12 -3 23q-1 46 46 47q51 1 94 -72q11 -20 76 -141q10 -19 31 -57q6 -9 11 -13q0 7 -4 17q0 1 -20 45q-45 99 -65 132q-46 76 -103 103q-6 -6 -22 -9q-12 -1 -24 -3q-34 -10 -33 -57q0 -17 6 -38q12 -11 53 -108q33 -79 54 -114q45 -74 90 -73q19 0 37 15h-6 q-41 -1 -70 43l8 5q26 -39 63 -38q10 0 20 3l3 5l3 -2q27 12 61 57q25 33 24 84zM340 448q-43 14 -78 13q-93 -1 -126 -106q21 45 64.5 70.5t94.5 25.5h5v-4q13 -4 24 -4t16 5zM145 474q-26 -14 -33 -27q20 11 33 27zM548 -3q-7 -2 -14 -3q-53 -1 -100 98q-20 43 -75 131 q-21 33 -21 53q0 10 3 22q-4 1 -7 1q-8 0 -7 -13q0 -52 73 -172q77 -127 123 -126q17 0 25 9zM407 103v0v0v0z" />
<glyph unicode="~" horiz-adv-x="545" d="M508 388q0 -58 -41 -103.5t-98 -45.5q-49 0 -119 42t-108 42q-54 0 -54 -61q0 -9 2 -18q-60 43 -60 102q0 53 40 88.5t93 35.5q32 0 113.5 -41t128.5 -41q65 0 65 61q0 7 -1 16q39 -30 39 -77zM426 350q-5 -6 -18 -6q-41 0 -130.5 44t-117.5 44q-29 0 -55 -23t-30 -52 q8 18 35 36t46 18q28 0 100.5 -37.5t119.5 -37.5q35 0 50 14z" />
<glyph unicode="&#xa1;" horiz-adv-x="386" d="M359 59q-61 12 -66 78l-62 339h-47l-63 -321q-16 -93 -70 -89l-1 -71q16 -4 38 -4q70 0 108 51q46 -51 138 -51q12 0 25 1v67zM309 632q0 41 -29 70t-71 29q-41 0 -70 -29t-29 -70t29 -70.5t70 -29.5q42 0 71 29.5t29 70.5zM203 393l-10 -245q-1 -23 -17 -47 q-18 -27 -40 -30q23 17 34 96zM217 566q-55 -3 -70 57q-1 8 -1 15q0 33 34 53q-16 -15 -16 -39q0 -12 4 -22q17 -50 49 -64z" />
<glyph unicode="&#xa2;" horiz-adv-x="529" d="M507 447q0 -34 -24 -55.5t-58 -21.5q-31 0 -57.5 21.5t-26.5 52.5t28 60q-19 20 -68 20q-58 0 -92 -66q-27 -53 -27 -116q0 -67 25 -121q33 -68 93 -68q41 0 77 18q40 20 54 55l63 -29q-66 -109 -187 -120v-73h-61v73q-100 11 -161.5 83t-61.5 176q0 101 62.5 176.5 t159.5 86.5v72h62v-71q76 -9 132 -45q68 -43 68 -108zM148 158q-29 29 -47 84q-17 50 -17 96q-3 99 64 173q-57 -33 -78 -105q-4 -12 -10 -69q1 -37 10 -69q22 -75 78 -110z" />
<glyph unicode="&#xa3;" horiz-adv-x="530" d="M512 117q0 -57 -31.5 -91t-87.5 -34q-31 0 -90.5 16.5t-91.5 16.5t-91 -17t-86 -17q-3 23 -3 37q0 69 31 144q32 79 34 116h-68v61h61q-4 15 -33 56q-24 34 -24 71q0 94 71 145q63 46 160 46q79 0 148 -41q81 -48 81 -121q0 -112 -100 -112q-35 0 -61 22.5t-26 56.5 q0 36 42 68q-28 55 -75 55q-82 0 -82 -100q0 -17 19.5 -60t17.5 -86h57v-61h-66q-20 -86 -74 -145q39 24 86 24q29 0 83.5 -16.5t82.5 -16.5q55 0 67 59q49 -24 49 -76zM176 616q-41 -14 -67 -47t-26 -73q0 -34 29 -90.5t29 -101.5q0 -74 -61 -183q82 101 82 183 q0 41 -25 103t-26 93q0 71 65 116z" />
<glyph unicode="&#xa4;" horiz-adv-x="670" d="M640 473q0 -37 -25.5 -64t-62.5 -27q-35 0 -62.5 26t-27.5 62q0 37 33 74q-26 30 -83 30q-96 0 -129 -153h162l-33 -58h-138q-1 -32 1 -52h110l-33 -58h-69q31 -153 128 -153q48 0 90 24t60 66l62 -31q-37 -67 -97 -106q-64 -42 -137 -42q-104 0 -181 71q-73 67 -95 171 h-143l33 58h102q-1 23 0 52h-135l33 58h110q22 110 98.5 175.5t187.5 65.5q90 0 161 -49q80 -54 80 -140zM249 554q-100 -87 -100 -219q0 -134 99 -224q-72 100 -72 237q0 104 73 206z" />
<glyph unicode="&#xa8;" horiz-adv-x="593" d="M576 865q0 -31 -21.5 -53t-52.5 -22t-53 22t-22 53t22 52.5t53 21.5t52.5 -21.5t21.5 -52.5zM351 865q0 -31 -21.5 -53t-52.5 -22t-53 22t-22 53t22 52.5t53 21.5t52.5 -21.5t21.5 -52.5zM508 914q-45 3 -53 -43q-5 -34 24 -50q-17 16 -8 45q13 38 37 48zM283 914 q-45 3 -53 -43q-5 -34 24 -50q-17 16 -8 45q13 38 37 48z" />
<glyph unicode="&#xab;" horiz-adv-x="672" d="M347 -25l-331 271l331 271l-138 -271zM278 425l-199 -179l17 -19zM622 -25l-331 271l331 271l-138 -271zM553 425l-199 -179l17 -19z" />
<glyph unicode="&#xb4;" horiz-adv-x="507" d="M413 841l-314 -68l260 187zM339 878l-13 20l-147 -94z" />
<glyph unicode="&#xb8;" horiz-adv-x="638" d="M447 -98q0 -42 -38 -70.5t-94 -28.5v65q56 0 56 34q0 35 -56 35v65q56 0 94 -28.5t38 -71.5z" />
<glyph unicode="&#xbb;" horiz-adv-x="676" d="M381 246l-331 -271l138 271l-138 271zM268 246l-149 179l132 -198zM661 246l-331 -271l138 271l-138 271zM548 246l-149 179l132 -198z" />
<glyph unicode="&#xbf;" horiz-adv-x="616" d="M59 144q-9 30 -9 58q0 75 72 131q33 26 118 66q62 35 62 97q0 7 -1 15q49 -41 49 -94q0 -71 -70 -122q-76 -60 -69 -124q0 -51 41 -84q37 -31 87 -31q60 0 90 46q-48 29 -48 86q-1 41 28.5 67.5t74.5 26.5q47 0 74 -32.5t27 -78.5q-2 -87 -91 -138q-74 -42 -166 -42 q-104 0 -174.5 40t-94.5 113zM207 642q0 41 29 70t70 29t70.5 -29t29.5 -70t-29.5 -70.5t-70.5 -29.5t-70 29.5t-29 70.5zM138 192q-2 -97 89 -134q-64 43 -64 136q1 22 8 42q16 49 56 80q-37 -13 -61 -48.5t-28 -75.5zM298 576q55 -3 71 57q1 8 1 15q0 33 -34 53 q15 -15 15 -39q0 -12 -3 -22q-17 -50 -50 -64z" />
<glyph unicode="&#xc0;" d="M854 67v-69q-8 -2 -22 -2q-95 0 -139 55q-55 -52 -155 -52q-17 0 -33 2v66q31 0 56 9q35 12 35 36q0 14 -18 48q-13 22 -26 45h-310q-26 -62 -26 -78q0 -62 92 -60v-66q-14 -3 -34 -3q-69 0 -108 42q-59 -44 -120 -44q-23 0 -43 9v66q73 3 100 66q54 125 109 251 q90 211 90 235q0 31 -40 31q-12 0 -25 -2l1 80q20 5 48 5q92 0 137 -60q20 28 61 44q37 15 75 15q21 0 42 -4v-72q-25 -1 -43 -13q-22 -14 -22 -37q0 -15 10 -34l227 -439q39 -75 81 -70zM644 127q0 41 -16 72l-179 359q-10 18 -41 34zM492 311l-113 226l-90 -225zM249 841 l314 -68l-260 187zM323 878l13 20l147 -94z" />
<glyph unicode="&#xc1;" d="M854 67v-69q-8 -2 -22 -2q-95 0 -139 55q-55 -52 -155 -52q-17 0 -33 2v66q31 0 56 9q35 12 35 36q0 14 -18 48q-13 22 -26 45h-310q-26 -62 -26 -78q0 -62 92 -60v-66q-14 -3 -34 -3q-69 0 -108 42q-59 -44 -120 -44q-23 0 -43 9v66q73 3 100 66q54 125 109 251 q90 211 90 235q0 31 -40 31q-12 0 -25 -2l1 80q20 5 48 5q92 0 137 -60q20 28 61 44q37 15 75 15q21 0 42 -4v-72q-25 -1 -43 -13q-22 -14 -22 -37q0 -15 10 -34l227 -439q39 -75 81 -70zM644 127q0 41 -16 72l-179 359q-10 18 -41 34zM492 311l-113 226l-90 -225z" />
<glyph unicode="&#xc2;" d="M854 67v-69q-8 -2 -22 -2q-95 0 -139 55q-55 -52 -155 -52q-17 0 -33 2v66q31 0 56 9q35 12 35 36q0 14 -18 48q-13 22 -26 45h-310q-26 -62 -26 -78q0 -62 92 -60v-66q-14 -3 -34 -3q-69 0 -108 42q-59 -44 -120 -44q-23 0 -43 9v66q73 3 100 66q54 125 109 251 q90 211 90 235q0 31 -40 31q-12 0 -25 -2l1 80q20 5 48 5q92 0 137 -60q20 28 61 44q37 15 75 15q21 0 42 -4v-72q-25 -1 -43 -13q-22 -14 -22 -37q0 -15 10 -34l227 -439q39 -75 81 -70zM644 127q0 41 -16 72l-179 359q-10 18 -41 34zM492 311l-113 226l-90 -225z" />
<glyph unicode="&#xc3;" d="M854 67v-69q-8 -2 -22 -2q-95 0 -139 55q-55 -52 -155 -52q-17 0 -33 2v66q31 0 56 9q35 12 35 36q0 14 -18 48q-13 22 -26 45h-310q-26 -62 -26 -78q0 -62 92 -60v-66q-14 -3 -34 -3q-69 0 -108 42q-59 -44 -120 -44q-23 0 -43 9v66q73 3 100 66q54 125 109 251 q90 211 90 235q0 31 -40 31q-12 0 -25 -2l1 80q20 5 48 5q92 0 137 -60q20 28 61 44q37 15 75 15q21 0 42 -4v-72q-25 -1 -43 -13q-22 -14 -22 -37q0 -15 10 -34l227 -439q39 -75 81 -70zM644 127q0 41 -16 72l-179 359q-10 18 -41 34zM492 311l-113 226l-90 -225zM590 879 q0 -43 -30.5 -77t-73.5 -34q-37 0 -89.5 31.5t-80.5 31.5q-41 0 -41 -46q0 -7 1 -14q-45 33 -45 77q0 40 30.5 66.5t69.5 26.5q24 0 85 -30.5t97 -30.5q56 0 48 57q29 -22 29 -58zM528 851q-3 -5 -13 -5q-31 0 -98 33.5t-88 33.5q-22 0 -41.5 -17.5t-22.5 -39.5 q6 14 26 27.5t35 13.5q21 0 75 -28t90 -28q26 0 37 10z" />
<glyph unicode="&#xc4;" d="M854 67v-69q-8 -2 -22 -2q-95 0 -139 55q-55 -52 -155 -52q-17 0 -33 2v66q31 0 56 9q35 12 35 36q0 14 -18 48q-13 22 -26 45h-310q-26 -62 -26 -78q0 -62 92 -60v-66q-14 -3 -34 -3q-69 0 -108 42q-59 -44 -120 -44q-23 0 -43 9v66q73 3 100 66q54 125 109 251 q90 211 90 235q0 31 -40 31q-12 0 -25 -2l1 80q20 5 48 5q92 0 137 -60q20 28 61 44q37 15 75 15q21 0 42 -4v-72q-25 -1 -43 -13q-22 -14 -22 -37q0 -15 10 -34l227 -439q39 -75 81 -70zM644 127q0 41 -16 72l-179 359q-10 18 -41 34zM492 311l-113 226l-90 -225zM601 865 q0 -31 -21.5 -53t-52.5 -22t-53 22t-22 53t22 52.5t53 21.5t52.5 -21.5t21.5 -52.5zM376 865q0 -31 -21.5 -53t-52.5 -22t-53 22t-22 53t22 52.5t53 21.5t52.5 -21.5t21.5 -52.5zM533 914q-45 3 -53 -43q-5 -34 24 -50q-17 16 -8 45q13 38 37 48zM308 914q-45 3 -53 -43 q-5 -34 24 -50q-17 16 -8 45q13 38 37 48z" />
<glyph unicode="&#xc5;" d="M854 67v-69q-8 -2 -22 -2q-95 0 -139 55q-55 -52 -155 -52q-17 0 -33 2v66q31 0 56 9q35 12 35 36q0 14 -18 48q-13 22 -26 45h-310q-26 -62 -26 -78q0 -62 92 -60v-66q-14 -3 -34 -3q-69 0 -108 42q-59 -44 -120 -44q-23 0 -43 9v66q73 3 100 66q54 125 109 251 q90 211 90 235q0 31 -40 31q-12 0 -25 -2l1 80q20 5 48 5q92 0 137 -60q20 28 61 44q37 15 75 15q21 0 42 -4v-72q-25 -1 -43 -13q-22 -14 -22 -37q0 -15 10 -34l227 -439q39 -75 81 -70zM644 127q0 41 -16 72l-179 359q-10 18 -41 34zM492 311l-113 226l-90 -225zM527 842 q0 -46 -33 -79t-79 -33q-47 0 -79.5 33t-32.5 79q0 47 32.5 79.5t79.5 32.5q46 0 79 -32.5t33 -79.5zM471 842q0 24 -16.5 40t-39.5 16q-24 0 -40 -16t-16 -40q0 -23 16 -39.5t40 -16.5q23 0 39.5 16.5t16.5 39.5z" />
<glyph unicode="&#xc6;" horiz-adv-x="1138" d="M1141 241l-18 -242h-54l-27 46q-81 -47 -175 -47q-91 0 -155 58q-64 -59 -134 -59q-17 0 -33 5v74q31 0 47 37q13 28 13 63v29h-296q-18 -19 -69 -82q-6 -8 -6 -15q0 -17 30 -30q25 -12 44 -11v-66q-14 -3 -33 -3q-69 0 -109 42q-58 -44 -120 -44q-23 0 -43 9v66 q57 12 61 13q28 10 53 38l460 519q-21 26 -57 21v73l20 1q122 3 144 -51q74 51 161 51q32 0 83 -15.5t72 -15.5q37 0 43 33l55 -27l1 -155l-57 -18q-10 49 -53 79t-94 30q-72 0 -99 -40q-19 -30 -19 -97v-41q1 -27 1 -42q18 -8 39 -8q68 0 72 99l70 -3q1 -8 1 -21 q0 -99 -44 -110q47 -35 52 -112h-80q-14 36 -24 47q-16 16 -51 16q-23 0 -34 -15q0 -110 7 -143q19 -91 92 -91q79 0 127 42q52 44 55 123zM671 517q0 28 -8 61q-10 38 -25 54q12 -21 12 -84v-350q0 -80 -20 -101q41 13 41 84v336zM604 311v223l-197 -222z" />
<glyph unicode="&#xc7;" horiz-adv-x="638" d="M625 228q-12 -99 -95 -169.5t-183 -70.5q-148 0 -235 110q-82 101 -82 254q0 160 72 268q83 124 235 124q84 0 171 -49l19 33l61 -4v-244l-59 -2q-41 181 -158 181q-87 0 -131 -104q-34 -78 -34 -178q0 -104 35 -183q46 -104 137 -104q66 0 116 51q46 47 59 114zM213 62 q-53 53 -85 144q-29 84 -29 165q0 120 57 244q-81 -82 -81 -247q0 -94 31 -172q36 -90 107 -134zM447 -98q0 -42 -38 -70.5t-94 -28.5v65q56 0 56 34q0 35 -56 35v65q56 0 94 -28.5t38 -71.5z" />
<glyph unicode="&#xc8;" horiz-adv-x="689" d="M661 241l-18 -242h-54l-27 46q-81 -47 -175 -47q-91 0 -155 58q-64 -59 -134 -59q-17 0 -33 5v74q31 0 47 37q13 28 13 63l-1 366q0 50 -17 83q-22 44 -67 37v73l20 1q122 3 144 -51q74 51 161 51q32 0 83 -15.5t72 -15.5q37 0 43 33l55 -27l1 -155l-57 -18 q-10 49 -53 79t-94 30q-72 0 -99 -40q-19 -30 -19 -97v-41q1 -27 1 -42q18 -8 39 -8q68 0 72 99l70 -3q1 -8 1 -21q0 -99 -44 -110q47 -35 52 -112h-80q-14 36 -24 47q-16 16 -51 16q-23 0 -34 -15q0 -110 7 -143q19 -91 92 -91q79 0 127 42q52 44 55 123zM191 517 q0 28 -8 61q-10 38 -25 54q12 -21 12 -84v-350q0 -80 -20 -101q41 13 41 84v336zM199 841l314 -68l-260 187zM273 878l13 20l147 -94z" />
<glyph unicode="&#xc9;" horiz-adv-x="689" d="M661 241l-18 -242h-54l-27 46q-81 -47 -175 -47q-91 0 -155 58q-64 -59 -134 -59q-17 0 -33 5v74q31 0 47 37q13 28 13 63l-1 366q0 50 -17 83q-22 44 -67 37v73l20 1q122 3 144 -51q74 51 161 51q32 0 83 -15.5t72 -15.5q37 0 43 33l55 -27l1 -155l-57 -18 q-10 49 -53 79t-94 30q-72 0 -99 -40q-19 -30 -19 -97v-41q1 -27 1 -42q18 -8 39 -8q68 0 72 99l70 -3q1 -8 1 -21q0 -99 -44 -110q47 -35 52 -112h-80q-14 36 -24 47q-16 16 -51 16q-23 0 -34 -15q0 -110 7 -143q19 -91 92 -91q79 0 127 42q52 44 55 123zM191 517 q0 28 -8 61q-10 38 -25 54q12 -21 12 -84v-350q0 -80 -20 -101q41 13 41 84v336zM513 841l-314 -68l260 187zM439 878l-13 20l-147 -94z" />
<glyph unicode="&#xca;" horiz-adv-x="689" d="M661 241l-18 -242h-54l-27 46q-81 -47 -175 -47q-91 0 -155 58q-64 -59 -134 -59q-17 0 -33 5v74q31 0 47 37q13 28 13 63l-1 366q0 50 -17 83q-22 44 -67 37v73l20 1q122 3 144 -51q74 51 161 51q32 0 83 -15.5t72 -15.5q37 0 43 33l55 -27l1 -155l-57 -18 q-10 49 -53 79t-94 30q-72 0 -99 -40q-19 -30 -19 -97v-41q1 -27 1 -42q18 -8 39 -8q68 0 72 99l70 -3q1 -8 1 -21q0 -99 -44 -110q47 -35 52 -112h-80q-14 36 -24 47q-16 16 -51 16q-23 0 -34 -15q0 -110 7 -143q19 -91 92 -91q79 0 127 42q52 44 55 123zM191 517 q0 28 -8 61q-10 38 -25 54q12 -21 12 -84v-350q0 -80 -20 -101q41 13 41 84v336zM585 749l-223 93l-224 -93l224 223zM358 928l-143 -134l141 101z" />
<glyph unicode="&#xcb;" horiz-adv-x="689" d="M661 241l-18 -242h-54l-27 46q-81 -47 -175 -47q-91 0 -155 58q-64 -59 -134 -59q-17 0 -33 5v74q31 0 47 37q13 28 13 63l-1 366q0 50 -17 83q-22 44 -67 37v73l20 1q122 3 144 -51q74 51 161 51q32 0 83 -15.5t72 -15.5q37 0 43 33l55 -27l1 -155l-57 -18 q-10 49 -53 79t-94 30q-72 0 -99 -40q-19 -30 -19 -97v-41q1 -27 1 -42q18 -8 39 -8q68 0 72 99l70 -3q1 -8 1 -21q0 -99 -44 -110q47 -35 52 -112h-80q-14 36 -24 47q-16 16 -51 16q-23 0 -34 -15q0 -110 7 -143q19 -91 92 -91q79 0 127 42q52 44 55 123zM191 517 q0 28 -8 61q-10 38 -25 54q12 -21 12 -84v-350q0 -80 -20 -101q41 13 41 84v336z" />
<glyph unicode="&#xcc;" horiz-adv-x="411" d="M377 659q-32 -1 -52.5 -21.5t-20.5 -52.5v-440q0 -70 67 -80v-64q-14 -3 -34 -3q-86 0 -132 57q-17 -27 -53 -42.5t-70 -14.5l-20 1v66q32 2 50.5 27t18.5 58l-1 411q0 105 -79 99v67q23 10 55 10q63 0 109 -48q38 50 115 50q22 0 46 -6zM196 191v336q0 28 -9 61 q-9 38 -25 54q13 -21 13 -84v-350q0 -80 -20 -101q21 7 32 36q9 23 9 48zM49 841l314 -68l-260 187zM123 878l13 20l147 -94z" />
<glyph unicode="&#xcd;" horiz-adv-x="411" d="M377 659q-32 -1 -52.5 -21.5t-20.5 -52.5v-440q0 -70 67 -80v-64q-14 -3 -34 -3q-86 0 -132 57q-17 -27 -53 -42.5t-70 -14.5l-20 1v66q32 2 50.5 27t18.5 58l-1 411q0 105 -79 99v67q23 10 55 10q63 0 109 -48q38 50 115 50q22 0 46 -6zM196 191v336q0 28 -9 61 q-9 38 -25 54q13 -21 13 -84v-350q0 -80 -20 -101q21 7 32 36q9 23 9 48z" />
<glyph unicode="&#xce;" horiz-adv-x="411" d="M377 659q-32 -1 -52.5 -21.5t-20.5 -52.5v-440q0 -70 67 -80v-64q-14 -3 -34 -3q-86 0 -132 57q-17 -27 -53 -42.5t-70 -14.5l-20 1v66q32 2 50.5 27t18.5 58l-1 411q0 105 -79 99v67q23 10 55 10q63 0 109 -48q38 50 115 50q22 0 46 -6zM196 191v336q0 28 -9 61 q-9 38 -25 54q13 -21 13 -84v-350q0 -80 -20 -101q21 7 32 36q9 23 9 48z" />
<glyph unicode="&#xcf;" horiz-adv-x="411" d="M377 659q-32 -1 -52.5 -21.5t-20.5 -52.5v-440q0 -70 67 -80v-64q-14 -3 -34 -3q-86 0 -132 57q-17 -27 -53 -42.5t-70 -14.5l-20 1v66q32 2 50.5 27t18.5 58l-1 411q0 105 -79 99v67q23 10 55 10q63 0 109 -48q38 50 115 50q22 0 46 -6zM196 191v336q0 28 -9 61 q-9 38 -25 54q13 -21 13 -84v-350q0 -80 -20 -101q21 7 32 36q9 23 9 48z" />
<glyph unicode="&#xd1;" horiz-adv-x="773" d="M755 655q-31 -1 -51.5 -21t-20.5 -51v-578h-74l-337 388v-226q0 -96 81 -93v-72q-15 -6 -38 -6q-58 0 -100 42q-52 -41 -112 -41q-9 0 -17 1v74q31 3 50.5 26t19.5 55v370q0 54 -27 89q-30 38 -84 37v81h171l360 -406v236q0 41 -16 67q-21 30 -59 30v77q11 2 28 2 q68 0 105 -44q27 45 99 45q10 0 22 -1v-81zM597 125l-351 403v-31l351 -404v32zM575 879q0 -43 -30.5 -77t-73.5 -34q-37 0 -89.5 31.5t-80.5 31.5q-41 0 -41 -46q0 -7 1 -14q-45 33 -45 77q0 40 30.5 66.5t69.5 26.5q24 0 85 -30.5t97 -30.5q56 0 48 57q29 -22 29 -58z M513 851q-3 -5 -13 -5q-31 0 -98 33.5t-88 33.5q-22 0 -41.5 -17.5t-22.5 -39.5q6 14 26 27.5t35 13.5q21 0 75 -28t90 -28q26 0 37 10z" />
<glyph unicode="&#xd2;" horiz-adv-x="660" d="M658 368q0 -151 -83 -263q-92 -123 -238 -123q-141 0 -233 123q-84 113 -84 259q0 150 85 262q93 123 239 123q141 0 232 -123q82 -112 82 -258zM536 348q0 153 -94 283l3 -4q59 -125 59 -278q0 -159 -58 -263q90 112 90 262zM454 345q0 97 -18 180q-29 129 -92 129 q-74 0 -106 -120q-19 -75 -19 -182q0 -86 26 -171q35 -115 99 -115q110 0 110 279zM187 69q-91 155 -91 310q0 136 71 259q-45 -52 -72.5 -129t-27.5 -147q0 -155 120 -293zM179 841l314 -68l-260 187zM253 878l13 20l147 -94z" />
<glyph unicode="&#xd3;" horiz-adv-x="660" d="M658 368q0 -151 -83 -263q-92 -123 -238 -123q-141 0 -233 123q-84 113 -84 259q0 150 85 262q93 123 239 123q141 0 232 -123q82 -112 82 -258zM536 348q0 153 -94 283l3 -4q59 -125 59 -278q0 -159 -58 -263q90 112 90 262zM454 345q0 97 -18 180q-29 129 -92 129 q-74 0 -106 -120q-19 -75 -19 -182q0 -86 26 -171q35 -115 99 -115q110 0 110 279zM187 69q-91 155 -91 310q0 136 71 259q-45 -52 -72.5 -129t-27.5 -147q0 -155 120 -293z" />
<glyph unicode="&#xd4;" horiz-adv-x="660" d="M658 368q0 -151 -83 -263q-92 -123 -238 -123q-141 0 -233 123q-84 113 -84 259q0 150 85 262q93 123 239 123q141 0 232 -123q82 -112 82 -258zM536 348q0 153 -94 283l3 -4q59 -125 59 -278q0 -159 -58 -263q90 112 90 262zM454 345q0 97 -18 180q-29 129 -92 129 q-74 0 -106 -120q-19 -75 -19 -182q0 -86 26 -171q35 -115 99 -115q110 0 110 279zM187 69q-91 155 -91 310q0 136 71 259q-45 -52 -72.5 -129t-27.5 -147q0 -155 120 -293z" />
<glyph unicode="&#xd5;" horiz-adv-x="660" d="M658 368q0 -151 -83 -263q-92 -123 -238 -123q-141 0 -233 123q-84 113 -84 259q0 150 85 262q93 123 239 123q141 0 232 -123q82 -112 82 -258zM536 348q0 153 -94 283l3 -4q59 -125 59 -278q0 -159 -58 -263q90 112 90 262zM454 345q0 97 -18 180q-29 129 -92 129 q-74 0 -106 -120q-19 -75 -19 -182q0 -86 26 -171q35 -115 99 -115q110 0 110 279zM187 69q-91 155 -91 310q0 136 71 259q-45 -52 -72.5 -129t-27.5 -147q0 -155 120 -293zM515 879q0 -43 -30.5 -77t-73.5 -34q-37 0 -89.5 31.5t-80.5 31.5q-41 0 -41 -46q0 -7 1 -14 q-45 33 -45 77q0 40 30.5 66.5t69.5 26.5q24 0 85 -30.5t97 -30.5q56 0 48 57q29 -22 29 -58zM453 851q-3 -5 -13 -5q-31 0 -98 33.5t-88 33.5q-22 0 -41.5 -17.5t-22.5 -39.5q6 14 26 27.5t35 13.5q21 0 75 -28t90 -28q26 0 37 10z" />
<glyph unicode="&#xd6;" horiz-adv-x="660" d="M658 368q0 -151 -83 -263q-92 -123 -238 -123q-141 0 -233 123q-84 113 -84 259q0 150 85 262q93 123 239 123q141 0 232 -123q82 -112 82 -258zM536 348q0 153 -94 283l3 -4q59 -125 59 -278q0 -159 -58 -263q90 112 90 262zM454 345q0 97 -18 180q-29 129 -92 129 q-74 0 -106 -120q-19 -75 -19 -182q0 -86 26 -171q35 -115 99 -115q110 0 110 279zM187 69q-91 155 -91 310q0 136 71 259q-45 -52 -72.5 -129t-27.5 -147q0 -155 120 -293zM526 865q0 -31 -21.5 -53t-52.5 -22t-53 22t-22 53t22 52.5t53 21.5t52.5 -21.5t21.5 -52.5z M301 865q0 -31 -21.5 -53t-52.5 -22t-53 22t-22 53t22 52.5t53 21.5t52.5 -21.5t21.5 -52.5zM458 914q-45 3 -53 -43q-5 -34 24 -50q-17 16 -8 45q13 38 37 48zM233 914q-45 3 -53 -43q-5 -34 24 -50q-17 16 -8 45q13 38 37 48z" />
<glyph unicode="&#xd9;" horiz-adv-x="705" d="M689 655h-6q-31 0 -48 -20.5t-17 -52.5v-378q0 -93 -79 -156q-73 -60 -168 -60q-112 0 -188 76.5t-76 188.5v320q0 39 -18 64q-21 31 -58 25v70q19 5 47 5q77 0 116 -50q33 50 112 50q18 0 37 -3v-72q-32 -1 -51.5 -24t-19.5 -56v-355q0 -62 32.5 -98.5t96.5 -36.5 q57 0 88 37.5t31 95.5v322q0 48 -20 78q-24 35 -69 36l-1 74q13 2 31 2q68 0 103 -40q27 39 79 39q22 0 45 -10zM192 116q-19 59 -19 137l1 265q0 70 -29 118q4 -20 4 -76v-302q0 -72 43 -142zM229 841l314 -68l-260 187zM303 878l13 20l147 -94z" />
<glyph unicode="&#xda;" horiz-adv-x="705" d="M689 655h-6q-31 0 -48 -20.5t-17 -52.5v-378q0 -93 -79 -156q-73 -60 -168 -60q-112 0 -188 76.5t-76 188.5v320q0 39 -18 64q-21 31 -58 25v70q19 5 47 5q77 0 116 -50q33 50 112 50q18 0 37 -3v-72q-32 -1 -51.5 -24t-19.5 -56v-355q0 -62 32.5 -98.5t96.5 -36.5 q57 0 88 37.5t31 95.5v322q0 48 -20 78q-24 35 -69 36l-1 74q13 2 31 2q68 0 103 -40q27 39 79 39q22 0 45 -10zM192 116q-19 59 -19 137l1 265q0 70 -29 118q4 -20 4 -76v-302q0 -72 43 -142z" />
<glyph unicode="&#xdb;" horiz-adv-x="705" d="M689 655h-6q-31 0 -48 -20.5t-17 -52.5v-378q0 -93 -79 -156q-73 -60 -168 -60q-112 0 -188 76.5t-76 188.5v320q0 39 -18 64q-21 31 -58 25v70q19 5 47 5q77 0 116 -50q33 50 112 50q18 0 37 -3v-72q-32 -1 -51.5 -24t-19.5 -56v-355q0 -62 32.5 -98.5t96.5 -36.5 q57 0 88 37.5t31 95.5v322q0 48 -20 78q-24 35 -69 36l-1 74q13 2 31 2q68 0 103 -40q27 39 79 39q22 0 45 -10zM192 116q-19 59 -19 137l1 265q0 70 -29 118q4 -20 4 -76v-302q0 -72 43 -142z" />
<glyph unicode="&#xdc;" horiz-adv-x="705" d="M689 655h-6q-31 0 -48 -20.5t-17 -52.5v-378q0 -93 -79 -156q-73 -60 -168 -60q-112 0 -188 76.5t-76 188.5v320q0 39 -18 64q-21 31 -58 25v70q19 5 47 5q77 0 116 -50q33 50 112 50q18 0 37 -3v-72q-32 -1 -51.5 -24t-19.5 -56v-355q0 -62 32.5 -98.5t96.5 -36.5 q57 0 88 37.5t31 95.5v322q0 48 -20 78q-24 35 -69 36l-1 74q13 2 31 2q68 0 103 -40q27 39 79 39q22 0 45 -10zM192 116q-19 59 -19 137l1 265q0 70 -29 118q4 -20 4 -76v-302q0 -72 43 -142zM571 865q0 -31 -21.5 -53t-52.5 -22t-53 22t-22 53t22 52.5t53 21.5t52.5 -21.5 t21.5 -52.5zM346 865q0 -31 -21.5 -53t-52.5 -22t-53 22t-22 53t22 52.5t53 21.5t52.5 -21.5t21.5 -52.5zM503 914q-45 3 -53 -43q-5 -34 24 -50q-17 16 -8 45q13 38 37 48zM278 914q-45 3 -53 -43q-5 -34 24 -50q-17 16 -8 45q13 38 37 48z" />
<glyph unicode="&#xe0;" d="M854 67v-69q-8 -2 -22 -2q-95 0 -139 55q-55 -52 -155 -52q-17 0 -33 2v66q31 0 56 9q35 12 35 36q0 14 -18 48q-13 22 -26 45h-310q-26 -62 -26 -78q0 -62 92 -60v-66q-14 -3 -34 -3q-69 0 -108 42q-59 -44 -120 -44q-23 0 -43 9v66q73 3 100 66q54 125 109 251 q90 211 90 235q0 31 -40 31q-12 0 -25 -2l1 80q20 5 48 5q92 0 137 -60q20 28 61 44q37 15 75 15q21 0 42 -4v-72q-25 -1 -43 -13q-22 -14 -22 -37q0 -15 10 -34l227 -439q39 -75 81 -70zM644 127q0 41 -16 72l-179 359q-10 18 -41 34zM492 311l-113 226l-90 -225zM249 841 l314 -68l-260 187zM323 878l13 20l147 -94z" />
<glyph unicode="&#xe1;" d="M854 67v-69q-8 -2 -22 -2q-95 0 -139 55q-55 -52 -155 -52q-17 0 -33 2v66q31 0 56 9q35 12 35 36q0 14 -18 48q-13 22 -26 45h-310q-26 -62 -26 -78q0 -62 92 -60v-66q-14 -3 -34 -3q-69 0 -108 42q-59 -44 -120 -44q-23 0 -43 9v66q73 3 100 66q54 125 109 251 q90 211 90 235q0 31 -40 31q-12 0 -25 -2l1 80q20 5 48 5q92 0 137 -60q20 28 61 44q37 15 75 15q21 0 42 -4v-72q-25 -1 -43 -13q-22 -14 -22 -37q0 -15 10 -34l227 -439q39 -75 81 -70zM644 127q0 41 -16 72l-179 359q-10 18 -41 34zM492 311l-113 226l-90 -225z" />
<glyph unicode="&#xe2;" d="M854 67v-69q-8 -2 -22 -2q-95 0 -139 55q-55 -52 -155 -52q-17 0 -33 2v66q31 0 56 9q35 12 35 36q0 14 -18 48q-13 22 -26 45h-310q-26 -62 -26 -78q0 -62 92 -60v-66q-14 -3 -34 -3q-69 0 -108 42q-59 -44 -120 -44q-23 0 -43 9v66q73 3 100 66q54 125 109 251 q90 211 90 235q0 31 -40 31q-12 0 -25 -2l1 80q20 5 48 5q92 0 137 -60q20 28 61 44q37 15 75 15q21 0 42 -4v-72q-25 -1 -43 -13q-22 -14 -22 -37q0 -15 10 -34l227 -439q39 -75 81 -70zM644 127q0 41 -16 72l-179 359q-10 18 -41 34zM492 311l-113 226l-90 -225z" />
<glyph unicode="&#xe3;" d="M854 67v-69q-8 -2 -22 -2q-95 0 -139 55q-55 -52 -155 -52q-17 0 -33 2v66q31 0 56 9q35 12 35 36q0 14 -18 48q-13 22 -26 45h-310q-26 -62 -26 -78q0 -62 92 -60v-66q-14 -3 -34 -3q-69 0 -108 42q-59 -44 -120 -44q-23 0 -43 9v66q73 3 100 66q54 125 109 251 q90 211 90 235q0 31 -40 31q-12 0 -25 -2l1 80q20 5 48 5q92 0 137 -60q20 28 61 44q37 15 75 15q21 0 42 -4v-72q-25 -1 -43 -13q-22 -14 -22 -37q0 -15 10 -34l227 -439q39 -75 81 -70zM644 127q0 41 -16 72l-179 359q-10 18 -41 34zM492 311l-113 226l-90 -225zM590 879 q0 -43 -30.5 -77t-73.5 -34q-37 0 -89.5 31.5t-80.5 31.5q-41 0 -41 -46q0 -7 1 -14q-45 33 -45 77q0 40 30.5 66.5t69.5 26.5q24 0 85 -30.5t97 -30.5q56 0 48 57q29 -22 29 -58zM528 851q-3 -5 -13 -5q-31 0 -98 33.5t-88 33.5q-22 0 -41.5 -17.5t-22.5 -39.5 q6 14 26 27.5t35 13.5q21 0 75 -28t90 -28q26 0 37 10z" />
<glyph unicode="&#xe4;" d="M854 67v-69q-8 -2 -22 -2q-95 0 -139 55q-55 -52 -155 -52q-17 0 -33 2v66q31 0 56 9q35 12 35 36q0 14 -18 48q-13 22 -26 45h-310q-26 -62 -26 -78q0 -62 92 -60v-66q-14 -3 -34 -3q-69 0 -108 42q-59 -44 -120 -44q-23 0 -43 9v66q73 3 100 66q54 125 109 251 q90 211 90 235q0 31 -40 31q-12 0 -25 -2l1 80q20 5 48 5q92 0 137 -60q20 28 61 44q37 15 75 15q21 0 42 -4v-72q-25 -1 -43 -13q-22 -14 -22 -37q0 -15 10 -34l227 -439q39 -75 81 -70zM644 127q0 41 -16 72l-179 359q-10 18 -41 34zM492 311l-113 226l-90 -225zM601 865 q0 -31 -21.5 -53t-52.5 -22t-53 22t-22 53t22 52.5t53 21.5t52.5 -21.5t21.5 -52.5zM376 865q0 -31 -21.5 -53t-52.5 -22t-53 22t-22 53t22 52.5t53 21.5t52.5 -21.5t21.5 -52.5zM533 914q-45 3 -53 -43q-5 -34 24 -50q-17 16 -8 45q13 38 37 48zM308 914q-45 3 -53 -43 q-5 -34 24 -50q-17 16 -8 45q13 38 37 48z" />
<glyph unicode="&#xe5;" d="M854 67v-69q-8 -2 -22 -2q-95 0 -139 55q-55 -52 -155 -52q-17 0 -33 2v66q31 0 56 9q35 12 35 36q0 14 -18 48q-13 22 -26 45h-310q-26 -62 -26 -78q0 -62 92 -60v-66q-14 -3 -34 -3q-69 0 -108 42q-59 -44 -120 -44q-23 0 -43 9v66q73 3 100 66q54 125 109 251 q90 211 90 235q0 31 -40 31q-12 0 -25 -2l1 80q20 5 48 5q92 0 137 -60q20 28 61 44q37 15 75 15q21 0 42 -4v-72q-25 -1 -43 -13q-22 -14 -22 -37q0 -15 10 -34l227 -439q39 -75 81 -70zM644 127q0 41 -16 72l-179 359q-10 18 -41 34zM492 311l-113 226l-90 -225zM527 842 q0 -46 -33 -79t-79 -33q-47 0 -79.5 33t-32.5 79q0 47 32.5 79.5t79.5 32.5q46 0 79 -32.5t33 -79.5zM471 842q0 24 -16.5 40t-39.5 16q-24 0 -40 -16t-16 -40q0 -23 16 -39.5t40 -16.5q23 0 39.5 16.5t16.5 39.5z" />
<glyph unicode="&#xe7;" horiz-adv-x="638" d="M625 228q-12 -99 -95 -169.5t-183 -70.5q-148 0 -235 110q-82 101 -82 254q0 160 72 268q83 124 235 124q84 0 171 -49l19 33l61 -4v-244l-59 -2q-41 181 -158 181q-87 0 -131 -104q-34 -78 -34 -178q0 -104 35 -183q46 -104 137 -104q66 0 116 51q46 47 59 114zM213 62 q-53 53 -85 144q-29 84 -29 165q0 120 57 244q-81 -82 -81 -247q0 -94 31 -172q36 -90 107 -134zM447 -98q0 -42 -38 -70.5t-94 -28.5v65q56 0 56 34q0 35 -56 35v65q56 0 94 -28.5t38 -71.5z" />
<glyph unicode="&#xe8;" horiz-adv-x="689" d="M661 241l-18 -242h-54l-27 46q-81 -47 -175 -47q-91 0 -155 58q-64 -59 -134 -59q-17 0 -33 5v74q31 0 47 37q13 28 13 63l-1 366q0 50 -17 83q-22 44 -67 37v73l20 1q122 3 144 -51q74 51 161 51q32 0 83 -15.5t72 -15.5q37 0 43 33l55 -27l1 -155l-57 -18 q-10 49 -53 79t-94 30q-72 0 -99 -40q-19 -30 -19 -97v-41q1 -27 1 -42q18 -8 39 -8q68 0 72 99l70 -3q1 -8 1 -21q0 -99 -44 -110q47 -35 52 -112h-80q-14 36 -24 47q-16 16 -51 16q-23 0 -34 -15q0 -110 7 -143q19 -91 92 -91q79 0 127 42q52 44 55 123zM191 517 q0 28 -8 61q-10 38 -25 54q12 -21 12 -84v-350q0 -80 -20 -101q41 13 41 84v336zM199 841l314 -68l-260 187zM273 878l13 20l147 -94z" />
<glyph unicode="&#xe9;" horiz-adv-x="689" d="M661 241l-18 -242h-54l-27 46q-81 -47 -175 -47q-91 0 -155 58q-64 -59 -134 -59q-17 0 -33 5v74q31 0 47 37q13 28 13 63l-1 366q0 50 -17 83q-22 44 -67 37v73l20 1q122 3 144 -51q74 51 161 51q32 0 83 -15.5t72 -15.5q37 0 43 33l55 -27l1 -155l-57 -18 q-10 49 -53 79t-94 30q-72 0 -99 -40q-19 -30 -19 -97v-41q1 -27 1 -42q18 -8 39 -8q68 0 72 99l70 -3q1 -8 1 -21q0 -99 -44 -110q47 -35 52 -112h-80q-14 36 -24 47q-16 16 -51 16q-23 0 -34 -15q0 -110 7 -143q19 -91 92 -91q79 0 127 42q52 44 55 123zM191 517 q0 28 -8 61q-10 38 -25 54q12 -21 12 -84v-350q0 -80 -20 -101q41 13 41 84v336zM513 841l-314 -68l260 187zM439 878l-13 20l-147 -94z" />
<glyph unicode="&#xea;" horiz-adv-x="689" d="M661 241l-18 -242h-54l-27 46q-81 -47 -175 -47q-91 0 -155 58q-64 -59 -134 -59q-17 0 -33 5v74q31 0 47 37q13 28 13 63l-1 366q0 50 -17 83q-22 44 -67 37v73l20 1q122 3 144 -51q74 51 161 51q32 0 83 -15.5t72 -15.5q37 0 43 33l55 -27l1 -155l-57 -18 q-10 49 -53 79t-94 30q-72 0 -99 -40q-19 -30 -19 -97v-41q1 -27 1 -42q18 -8 39 -8q68 0 72 99l70 -3q1 -8 1 -21q0 -99 -44 -110q47 -35 52 -112h-80q-14 36 -24 47q-16 16 -51 16q-23 0 -34 -15q0 -110 7 -143q19 -91 92 -91q79 0 127 42q52 44 55 123zM191 517 q0 28 -8 61q-10 38 -25 54q12 -21 12 -84v-350q0 -80 -20 -101q41 13 41 84v336zM585 749l-223 93l-224 -93l224 223zM358 928l-143 -134l141 101z" />
<glyph unicode="&#xeb;" horiz-adv-x="689" d="M661 241l-18 -242h-54l-27 46q-81 -47 -175 -47q-91 0 -155 58q-64 -59 -134 -59q-17 0 -33 5v74q31 0 47 37q13 28 13 63l-1 366q0 50 -17 83q-22 44 -67 37v73l20 1q122 3 144 -51q74 51 161 51q32 0 83 -15.5t72 -15.5q37 0 43 33l55 -27l1 -155l-57 -18 q-10 49 -53 79t-94 30q-72 0 -99 -40q-19 -30 -19 -97v-41q1 -27 1 -42q18 -8 39 -8q68 0 72 99l70 -3q1 -8 1 -21q0 -99 -44 -110q47 -35 52 -112h-80q-14 36 -24 47q-16 16 -51 16q-23 0 -34 -15q0 -110 7 -143q19 -91 92 -91q79 0 127 42q52 44 55 123zM191 517 q0 28 -8 61q-10 38 -25 54q12 -21 12 -84v-350q0 -80 -20 -101q41 13 41 84v336z" />
<glyph unicode="&#xec;" horiz-adv-x="411" d="M377 659q-32 -1 -52.5 -21.5t-20.5 -52.5v-440q0 -70 67 -80v-64q-14 -3 -34 -3q-86 0 -132 57q-17 -27 -53 -42.5t-70 -14.5l-20 1v66q32 2 50.5 27t18.5 58l-1 411q0 105 -79 99v67q23 10 55 10q63 0 109 -48q38 50 115 50q22 0 46 -6zM196 191v336q0 28 -9 61 q-9 38 -25 54q13 -21 13 -84v-350q0 -80 -20 -101q21 7 32 36q9 23 9 48zM49 841l314 -68l-260 187zM123 878l13 20l147 -94z" />
<glyph unicode="&#xed;" horiz-adv-x="411" d="M377 659q-32 -1 -52.5 -21.5t-20.5 -52.5v-440q0 -70 67 -80v-64q-14 -3 -34 -3q-86 0 -132 57q-17 -27 -53 -42.5t-70 -14.5l-20 1v66q32 2 50.5 27t18.5 58l-1 411q0 105 -79 99v67q23 10 55 10q63 0 109 -48q38 50 115 50q22 0 46 -6zM196 191v336q0 28 -9 61 q-9 38 -25 54q13 -21 13 -84v-350q0 -80 -20 -101q21 7 32 36q9 23 9 48z" />
<glyph unicode="&#xee;" horiz-adv-x="411" d="M377 659q-32 -1 -52.5 -21.5t-20.5 -52.5v-440q0 -70 67 -80v-64q-14 -3 -34 -3q-86 0 -132 57q-17 -27 -53 -42.5t-70 -14.5l-20 1v66q32 2 50.5 27t18.5 58l-1 411q0 105 -79 99v67q23 10 55 10q63 0 109 -48q38 50 115 50q22 0 46 -6zM196 191v336q0 28 -9 61 q-9 38 -25 54q13 -21 13 -84v-350q0 -80 -20 -101q21 7 32 36q9 23 9 48z" />
<glyph unicode="&#xef;" horiz-adv-x="411" d="M377 659q-32 -1 -52.5 -21.5t-20.5 -52.5v-440q0 -70 67 -80v-64q-14 -3 -34 -3q-86 0 -132 57q-17 -27 -53 -42.5t-70 -14.5l-20 1v66q32 2 50.5 27t18.5 58l-1 411q0 105 -79 99v67q23 10 55 10q63 0 109 -48q38 50 115 50q22 0 46 -6zM196 191v336q0 28 -9 61 q-9 38 -25 54q13 -21 13 -84v-350q0 -80 -20 -101q21 7 32 36q9 23 9 48z" />
<glyph unicode="&#xf1;" horiz-adv-x="773" d="M755 655q-31 -1 -51.5 -21t-20.5 -51v-578h-74l-337 388v-226q0 -96 81 -93v-72q-15 -6 -38 -6q-58 0 -100 42q-52 -41 -112 -41q-9 0 -17 1v74q31 3 50.5 26t19.5 55v370q0 54 -27 89q-30 38 -84 37v81h171l360 -406v236q0 41 -16 67q-21 30 -59 30v77q11 2 28 2 q68 0 105 -44q27 45 99 45q10 0 22 -1v-81zM597 125l-351 403v-31l351 -404v32zM575 879q0 -43 -30.5 -77t-73.5 -34q-37 0 -89.5 31.5t-80.5 31.5q-41 0 -41 -46q0 -7 1 -14q-45 33 -45 77q0 40 30.5 66.5t69.5 26.5q24 0 85 -30.5t97 -30.5q56 0 48 57q29 -22 29 -58z M513 851q-3 -5 -13 -5q-31 0 -98 33.5t-88 33.5q-22 0 -41.5 -17.5t-22.5 -39.5q6 14 26 27.5t35 13.5q21 0 75 -28t90 -28q26 0 37 10z" />
<glyph unicode="&#xf2;" horiz-adv-x="660" d="M658 368q0 -151 -83 -263q-92 -123 -238 -123q-141 0 -233 123q-84 113 -84 259q0 150 85 262q93 123 239 123q141 0 232 -123q82 -112 82 -258zM536 348q0 153 -94 283l3 -4q59 -125 59 -278q0 -159 -58 -263q90 112 90 262zM454 345q0 97 -18 180q-29 129 -92 129 q-74 0 -106 -120q-19 -75 -19 -182q0 -86 26 -171q35 -115 99 -115q110 0 110 279zM187 69q-91 155 -91 310q0 136 71 259q-45 -52 -72.5 -129t-27.5 -147q0 -155 120 -293zM179 841l314 -68l-260 187zM253 878l13 20l147 -94z" />
<glyph unicode="&#xf3;" horiz-adv-x="660" d="M658 368q0 -151 -83 -263q-92 -123 -238 -123q-141 0 -233 123q-84 113 -84 259q0 150 85 262q93 123 239 123q141 0 232 -123q82 -112 82 -258zM536 348q0 153 -94 283l3 -4q59 -125 59 -278q0 -159 -58 -263q90 112 90 262zM454 345q0 97 -18 180q-29 129 -92 129 q-74 0 -106 -120q-19 -75 -19 -182q0 -86 26 -171q35 -115 99 -115q110 0 110 279zM187 69q-91 155 -91 310q0 136 71 259q-45 -52 -72.5 -129t-27.5 -147q0 -155 120 -293z" />
<glyph unicode="&#xf4;" horiz-adv-x="660" d="M658 368q0 -151 -83 -263q-92 -123 -238 -123q-141 0 -233 123q-84 113 -84 259q0 150 85 262q93 123 239 123q141 0 232 -123q82 -112 82 -258zM536 348q0 153 -94 283l3 -4q59 -125 59 -278q0 -159 -58 -263q90 112 90 262zM454 345q0 97 -18 180q-29 129 -92 129 q-74 0 -106 -120q-19 -75 -19 -182q0 -86 26 -171q35 -115 99 -115q110 0 110 279zM187 69q-91 155 -91 310q0 136 71 259q-45 -52 -72.5 -129t-27.5 -147q0 -155 120 -293z" />
<glyph unicode="&#xf5;" horiz-adv-x="660" d="M658 368q0 -151 -83 -263q-92 -123 -238 -123q-141 0 -233 123q-84 113 -84 259q0 150 85 262q93 123 239 123q141 0 232 -123q82 -112 82 -258zM536 348q0 153 -94 283l3 -4q59 -125 59 -278q0 -159 -58 -263q90 112 90 262zM454 345q0 97 -18 180q-29 129 -92 129 q-74 0 -106 -120q-19 -75 -19 -182q0 -86 26 -171q35 -115 99 -115q110 0 110 279zM187 69q-91 155 -91 310q0 136 71 259q-45 -52 -72.5 -129t-27.5 -147q0 -155 120 -293zM515 879q0 -43 -30.5 -77t-73.5 -34q-37 0 -89.5 31.5t-80.5 31.5q-41 0 -41 -46q0 -7 1 -14 q-45 33 -45 77q0 40 30.5 66.5t69.5 26.5q24 0 85 -30.5t97 -30.5q56 0 48 57q29 -22 29 -58zM453 851q-3 -5 -13 -5q-31 0 -98 33.5t-88 33.5q-22 0 -41.5 -17.5t-22.5 -39.5q6 14 26 27.5t35 13.5q21 0 75 -28t90 -28q26 0 37 10z" />
<glyph unicode="&#xf6;" horiz-adv-x="660" d="M658 368q0 -151 -83 -263q-92 -123 -238 -123q-141 0 -233 123q-84 113 -84 259q0 150 85 262q93 123 239 123q141 0 232 -123q82 -112 82 -258zM536 348q0 153 -94 283l3 -4q59 -125 59 -278q0 -159 -58 -263q90 112 90 262zM454 345q0 97 -18 180q-29 129 -92 129 q-74 0 -106 -120q-19 -75 -19 -182q0 -86 26 -171q35 -115 99 -115q110 0 110 279zM187 69q-91 155 -91 310q0 136 71 259q-45 -52 -72.5 -129t-27.5 -147q0 -155 120 -293zM526 865q0 -31 -21.5 -53t-52.5 -22t-53 22t-22 53t22 52.5t53 21.5t52.5 -21.5t21.5 -52.5z M301 865q0 -31 -21.5 -53t-52.5 -22t-53 22t-22 53t22 52.5t53 21.5t52.5 -21.5t21.5 -52.5zM458 914q-45 3 -53 -43q-5 -34 24 -50q-17 16 -8 45q13 38 37 48zM233 914q-45 3 -53 -43q-5 -34 24 -50q-17 16 -8 45q13 38 37 48z" />
<glyph unicode="&#xf9;" horiz-adv-x="705" d="M689 655h-6q-31 0 -48 -20.5t-17 -52.5v-378q0 -93 -79 -156q-73 -60 -168 -60q-112 0 -188 76.5t-76 188.5v320q0 39 -18 64q-21 31 -58 25v70q19 5 47 5q77 0 116 -50q33 50 112 50q18 0 37 -3v-72q-32 -1 -51.5 -24t-19.5 -56v-355q0 -62 32.5 -98.5t96.5 -36.5 q57 0 88 37.5t31 95.5v322q0 48 -20 78q-24 35 -69 36l-1 74q13 2 31 2q68 0 103 -40q27 39 79 39q22 0 45 -10zM192 116q-19 59 -19 137l1 265q0 70 -29 118q4 -20 4 -76v-302q0 -72 43 -142zM229 841l314 -68l-260 187zM303 878l13 20l147 -94z" />
<glyph unicode="&#xfa;" horiz-adv-x="705" d="M689 655h-6q-31 0 -48 -20.5t-17 -52.5v-378q0 -93 -79 -156q-73 -60 -168 -60q-112 0 -188 76.5t-76 188.5v320q0 39 -18 64q-21 31 -58 25v70q19 5 47 5q77 0 116 -50q33 50 112 50q18 0 37 -3v-72q-32 -1 -51.5 -24t-19.5 -56v-355q0 -62 32.5 -98.5t96.5 -36.5 q57 0 88 37.5t31 95.5v322q0 48 -20 78q-24 35 -69 36l-1 74q13 2 31 2q68 0 103 -40q27 39 79 39q22 0 45 -10zM192 116q-19 59 -19 137l1 265q0 70 -29 118q4 -20 4 -76v-302q0 -72 43 -142z" />
<glyph unicode="&#xfb;" horiz-adv-x="705" d="M689 655h-6q-31 0 -48 -20.5t-17 -52.5v-378q0 -93 -79 -156q-73 -60 -168 -60q-112 0 -188 76.5t-76 188.5v320q0 39 -18 64q-21 31 -58 25v70q19 5 47 5q77 0 116 -50q33 50 112 50q18 0 37 -3v-72q-32 -1 -51.5 -24t-19.5 -56v-355q0 -62 32.5 -98.5t96.5 -36.5 q57 0 88 37.5t31 95.5v322q0 48 -20 78q-24 35 -69 36l-1 74q13 2 31 2q68 0 103 -40q27 39 79 39q22 0 45 -10zM192 116q-19 59 -19 137l1 265q0 70 -29 118q4 -20 4 -76v-302q0 -72 43 -142z" />
<glyph unicode="&#xfc;" horiz-adv-x="705" d="M689 655h-6q-31 0 -48 -20.5t-17 -52.5v-378q0 -93 -79 -156q-73 -60 -168 -60q-112 0 -188 76.5t-76 188.5v320q0 39 -18 64q-21 31 -58 25v70q19 5 47 5q77 0 116 -50q33 50 112 50q18 0 37 -3v-72q-32 -1 -51.5 -24t-19.5 -56v-355q0 -62 32.5 -98.5t96.5 -36.5 q57 0 88 37.5t31 95.5v322q0 48 -20 78q-24 35 -69 36l-1 74q13 2 31 2q68 0 103 -40q27 39 79 39q22 0 45 -10zM192 116q-19 59 -19 137l1 265q0 70 -29 118q4 -20 4 -76v-302q0 -72 43 -142zM571 865q0 -31 -21.5 -53t-52.5 -22t-53 22t-22 53t22 52.5t53 21.5t52.5 -21.5 t21.5 -52.5zM346 865q0 -31 -21.5 -53t-52.5 -22t-53 22t-22 53t22 52.5t53 21.5t52.5 -21.5t21.5 -52.5zM503 914q-45 3 -53 -43q-5 -34 24 -50q-17 16 -8 45q13 38 37 48zM278 914q-45 3 -53 -43q-5 -34 24 -50q-17 16 -8 45q13 38 37 48z" />
<glyph unicode="&#x152;" horiz-adv-x="1005" d="M981 241l-18 -242h-54l-27 46q-81 -47 -175 -47q-45 0 -102 18q-62 19 -94 46q-61 -80 -174 -80q-141 0 -233 123q-84 112 -84 259q0 150 85 262q93 123 239 123q97 0 155 -64q102 51 186 51q32 0 83 -15.5t72 -15.5q37 0 43 33l55 -27l1 -155l-57 -18q-10 49 -53 79 t-94 30q-72 0 -99 -40q-19 -30 -19 -97v-41q1 -27 1 -42q18 -8 39 -8q68 0 72 99l70 -3q1 -8 1 -21q0 -99 -44 -110q47 -35 52 -112h-80q-14 36 -24 47q-16 16 -51 16q-23 0 -34 -15q0 -110 7 -143q19 -91 92 -91q79 0 127 42q52 44 55 123zM516 517q0 28 -8 61 q-10 38 -25 54q13 -22 12 -84v-350q0 -80 -20 -101q41 13 41 84v336zM454 345q0 97 -18 180q-29 129 -92 129q-74 0 -106 -120q-19 -75 -19 -182q0 -86 26 -171q35 -115 99 -115q110 0 110 279zM187 69q-91 155 -91 300q0 64 19.5 139t51.5 130q-45 -52 -72.5 -129 t-27.5 -147q0 -155 120 -293z" />
<glyph unicode="&#x178;" horiz-adv-x="739" d="M740 735l-1 -80q-35 -1 -75 -32q-33 -26 -56 -60l-157 -239l1 -183q0 -28 26 -47t59 -17v-69q-30 -10 -66 -10q-76 0 -105 55q-46 -54 -126 -54q-30 0 -61 10v66h4q33 0 55.5 16.5t22.5 48.5v168l-157 260q-31 51 -34 56q-26 33 -53 33q-6 0 -12 -2v77q29 7 65 7 q87 0 116 -50q32 48 113 48q21 0 44 -4l-1 -75q-16 4 -28 4q-29 0 -29 -21q0 -15 51 -99q33 -50 65 -101q31 42 63 85q48 70 48 99q0 41 -69 34l-1 72q29 5 63 5q84 0 103 -42q53 44 119 42zM325 156v178l-158 268q-10 17 -31 37q-24 22 -40 24q23 -9 108 -157 q51 -90 102 -181l1 -28t1 -52q0 -137 -26 -154q43 17 43 65zM576 865q0 -31 -21.5 -53t-52.5 -22t-53 22t-22 53t22 52.5t53 21.5t52.5 -21.5t21.5 -52.5zM351 865q0 -31 -21.5 -53t-52.5 -22t-53 22t-22 53t22 52.5t53 21.5t52.5 -21.5t21.5 -52.5zM508 914q-45 3 -53 -43 q-5 -34 24 -50q-17 16 -8 45q13 38 37 48zM283 914q-45 3 -53 -43q-5 -34 24 -50q-17 16 -8 45q13 38 37 48z" />
<glyph unicode="&#x2c6;" horiz-adv-x="689" d="M585 749l-223 93l-224 -93l224 223zM358 928l-143 -134l141 101z" />
<glyph unicode="&#x2da;" d="M527 842q0 -46 -33 -79t-79 -33q-47 0 -79.5 33t-32.5 79q0 47 32.5 79.5t79.5 32.5q46 0 79 -32.5t33 -79.5zM471 842q0 24 -16.5 40t-39.5 16q-24 0 -40 -16t-16 -40q0 -23 16 -39.5t40 -16.5q23 0 39.5 16.5t16.5 39.5z" />
<glyph unicode="&#x2dc;" horiz-adv-x="773" d="M575 879q0 -43 -30.5 -77t-73.5 -34q-37 0 -89.5 31.5t-80.5 31.5q-41 0 -41 -46q0 -7 1 -14q-45 33 -45 77q0 40 30.5 66.5t69.5 26.5q24 0 85 -30.5t97 -30.5q56 0 48 57q29 -22 29 -58zM513 851q-3 -5 -13 -5q-31 0 -98 33.5t-88 33.5q-22 0 -41.5 -17.5t-22.5 -39.5 q6 14 26 27.5t35 13.5q21 0 75 -28t90 -28q26 0 37 10z" />
<glyph unicode="&#x2018;" horiz-adv-x="319" d="M249 539q0 -41 -29 -70.5t-71 -29.5q-40 0 -69 29t-30 71q-2 55 36 110q45 65 125 90q-37 -42 -50 -103q81 -1 88 -97zM147 614q-49 -2 -58 -56q-6 -41 20 -58q-14 23 -4 53q17 47 42 61z" />
<glyph unicode="&#x2019;" horiz-adv-x="319" d="M249 640q1 -56 -36 -110q-45 -66 -126 -91q38 43 51 103q-81 1 -88 98q0 41 29 70t70 29t69.5 -29t30.5 -70zM157 706q-27 2 -46.5 -14t-23.5 -44q-1 -8 -1 -15q0 -33 33 -52q-15 14 -15 38q0 12 4 23q17 50 49 64z" />
<glyph unicode="&#x201a;" horiz-adv-x="319" d="M249 90q1 -56 -36 -110q-45 -66 -126 -91q38 43 51 103q-81 1 -88 98q0 41 29 70t70 29t69.5 -29t30.5 -70zM157 156q-27 2 -46.5 -14t-23.5 -44q-1 -8 -1 -15q0 -33 33 -52q-15 14 -15 38q0 12 4 23q17 50 49 64z" />
<glyph unicode="&#x201c;" horiz-adv-x="561" d="M499 539q0 -41 -29 -70.5t-71 -29.5q-40 0 -69 29t-30 71q-2 55 36 110q45 65 125 90q-37 -42 -50 -103q81 -1 88 -97zM249 539q0 -41 -29 -70.5t-71 -29.5q-40 0 -69 29t-30 71q-2 55 36 110q45 65 125 90q-37 -42 -50 -103q81 -1 88 -97zM397 609q-49 -2 -58 -56 q-6 -41 20 -58q-14 23 -4 53q17 47 42 61zM147 609q-49 -2 -58 -56q-6 -41 20 -58q-14 23 -4 53q17 47 42 61z" />
<glyph unicode="&#x201d;" horiz-adv-x="561" d="M249 640q1 -56 -36 -110q-45 -66 -126 -91q38 43 51 103q-81 1 -88 98q0 41 29 70t70 29t69.5 -29t30.5 -70zM157 706q-27 2 -46.5 -14t-23.5 -44q-1 -8 -1 -15q0 -33 33 -52q-15 14 -15 38q0 12 4 23q17 50 49 64zM499 640q1 -56 -36 -110q-45 -66 -126 -91 q38 43 51 103q-81 1 -88 98q0 41 29 70t70 29t69.5 -29t30.5 -70zM407 706q-27 2 -46.5 -14t-23.5 -44q-1 -8 -1 -15q0 -33 33 -52q-15 14 -15 38q0 12 4 23q17 50 49 64z" />
<glyph unicode="&#x201e;" horiz-adv-x="561" d="M249 90q1 -56 -36 -110q-45 -66 -126 -91q38 43 51 103q-81 1 -88 98q0 41 29 70t70 29t69.5 -29t30.5 -70zM157 156q-27 2 -46.5 -14t-23.5 -44q-1 -8 -1 -15q0 -33 33 -52q-15 14 -15 38q0 12 4 23q17 50 49 64zM499 90q1 -56 -36 -110q-45 -66 -126 -91q38 43 51 103 q-81 1 -88 98q0 41 29 70t70 29t69.5 -29t30.5 -70zM407 156q-27 2 -46.5 -14t-23.5 -44q-1 -8 -1 -15q0 -33 33 -52q-15 14 -15 38q0 12 4 23q17 50 49 64z" />
<glyph unicode="&#x2039;" horiz-adv-x="328" d="M347 -25l-331 271l331 271l-138 -271zM278 425l-199 -179l17 -19z" />
<glyph unicode="&#x203a;" horiz-adv-x="328" d="M347 246l-331 -271l138 271l-138 271zM234 246l-149 179l132 -198z" />
<glyph unicode="&#x25fc;" horiz-adv-x="740" d="M0 740h740v-740h-740v740z" />
</font>
</defs>
</svg>
